<?xml version="1.0" encoding="utf-8"?>
<svg width="782px" height="388px" viewbox="0 0 782 388" version="1.1" xmlns:xlink="http://www.w3.org/1999/xlink" xmlns="http://www.w3.org/2000/svg">
  <path d="M21.0283 0L728.118 0Q728.676 0 729.233 0.0295936Q729.789 0.0591872 730.344 0.118291Q730.898 0.177395 731.449 0.265842Q732 0.35429 732.545 0.471831Q733.09 0.589373 733.628 0.735678Q734.166 0.881983 734.695 1.05664Q735.225 1.23129 735.745 1.43381Q736.264 1.63632 736.772 1.86612Q737.28 2.09592 737.775 2.35236Q738.271 2.60881 738.751 2.89116Q739.232 3.17352 739.697 3.481Q740.163 3.78848 740.611 4.12021Q741.059 4.45195 741.489 4.807Q741.919 5.16206 742.329 5.53943Q742.74 5.9168 743.13 6.31543Q743.52 6.71405 743.888 7.13281Q744.256 7.55157 744.602 7.98928Q744.947 8.42699 745.269 8.88242Q745.591 9.33785 745.888 9.80971Q746.185 10.2816 746.457 10.7685Q746.728 11.2555 746.974 11.7562Q747.219 12.2569 747.438 12.7699Q747.656 13.2829 747.847 13.8068Q748.038 14.3307 748.201 14.864Q748.364 15.3973 748.498 15.9385Q748.633 16.4797 748.738 17.0272Q748.844 17.5748 748.92 18.1271Q748.996 18.6795 749.043 19.2352Q749.09 19.7908 749.107 20.3482Q749.124 20.9055 749.112 21.463Q749.1 22.0205 749.058 22.5765Q749.016 23.1326 748.945 23.6856L715.555 282.518L23.6709 355.554Q23.1243 355.612 22.5755 355.641Q22.0267 355.67 21.4772 355.67Q20.9276 355.67 20.3788 355.642Q19.8299 355.613 19.2833 355.556Q18.7368 355.499 18.1939 355.414Q17.6511 355.328 17.1134 355.214Q16.5758 355.1 16.0449 354.958Q15.5139 354.816 14.9911 354.647Q14.4683 354.477 13.9551 354.281Q13.4419 354.084 12.9397 353.861Q12.4375 353.638 11.9476 353.389Q11.4578 353.14 10.9816 352.865Q10.5054 352.591 10.0443 352.292Q9.58313 351.993 9.13824 351.67Q8.69335 351.348 8.26595 351.002Q7.83854 350.657 7.42979 350.289Q7.02105 349.922 6.63207 349.534Q6.2431 349.146 5.87496 348.737Q5.50683 348.329 5.16054 347.903Q4.81426 347.476 4.49076 347.032Q4.16727 346.587 3.86746 346.127Q3.56765 345.666 3.29235 345.191Q3.01704 344.715 2.76699 344.226Q2.51693 343.736 2.29282 343.234Q2.06871 342.733 1.87115 342.22Q1.67359 341.707 1.50313 341.185Q1.33267 340.662 1.18977 340.131Q1.04686 339.601 0.931916 339.063Q0.816967 338.526 0.730285 337.983Q0.643604 337.44 0.585428 336.894Q0.527251 336.348 0.497739 335.799Q0.468226 335.25 0.467459 334.7L0.0293692 21.0283Q0.0286486 20.5124 0.053268 19.997Q0.0778875 19.4816 0.127788 18.9681Q0.177688 18.4546 0.252748 17.9441Q0.327808 17.4336 0.427848 16.9275Q0.527887 16.4213 0.652664 15.9207Q0.777441 15.42 0.926654 14.9261Q1.07587 14.4322 1.24916 13.9462Q1.42245 13.4602 1.6194 12.9834Q1.81634 12.5065 2.03647 12.0398Q2.25661 11.5732 2.49939 11.1179Q2.74217 10.6627 3.00702 10.2199Q3.27187 9.77708 3.55814 9.34783Q3.84442 8.91857 4.15143 8.5039Q4.45844 8.08923 4.78544 7.69013Q5.11245 7.29104 5.45866 6.90848Q5.80487 6.52593 6.16945 6.16084Q6.53403 5.79575 6.9161 5.449Q7.29817 5.10226 7.69681 4.7747Q8.09545 4.44713 8.50969 4.13955Q8.92394 3.83196 9.35279 3.54508Q9.78164 3.25821 10.2241 2.99274Q10.6665 2.72728 11.1214 2.48386Q11.5763 2.24044 12.0427 2.01966Q12.509 1.79887 12.9856 1.60126Q13.4622 1.40365 13.948 1.22968Q14.4337 1.05571 14.9274 0.905807Q15.4211 0.755904 15.9216 0.630428Q16.422 0.504952 16.9281 0.404205Q17.4341 0.303459 17.9444 0.227686Q18.4548 0.151913 18.9683 0.101296Q19.4817 0.0506784 19.9971 0.0253392Q20.5124 0 21.0283 0Z" transform="translate(15 15)" id="Rectangle-Copy-2" fill="#7796FE" fill-rule="evenodd" stroke="none" />
</svg>