<?xml version="1.0" encoding="utf-8"?>
<svg width="594px" height="756px" viewbox="0 0 594 756" version="1.1" xmlns:xlink="http://www.w3.org/1999/xlink" xmlns="http://www.w3.org/2000/svg">
  <defs>
    <path d="M0 756L668 756L668 0L0 0L0 756Z" id="path_1" />
    <clipPath id="mask_1">
      <use xlink:href="#path_1" />
    </clipPath>
  </defs>
  <g id="Group-172" transform="translate(-74 0)">
    <path d="M48.5412 90.1818L26.1935 78.5707C11.9854 55.8182 0.966517 29.1036 0 0.235369C0 0.235369 21.0543 -1.09259 44.9059 2.56007L59.9535 20.5077L61.1539 5.83797C72.8358 8.83442 84.2156 13.3221 93.2348 20.0132L94.8643 49.3386L104.176 30.9774C105.942 33.4576 107.451 36.1337 108.659 39.0229C127.252 83.4954 141 141.028 141 141.028L94.7822 153C94.7822 153 66.1569 132.176 40.3567 98.8368L48.5412 90.1818Z" transform="translate(25 590)" id="Fill-1" fill="#AD2500" fill-rule="evenodd" stroke="none" />
    <path d="M84.9985 133.044C97.6424 135.691 105.664 133.669 108.489 132.697C89.2834 117.692 70.7073 97.1876 55.5344 78.3163C54.851 78.5255 54.1707 78.7177 53.4935 78.8928C40.8853 82.1439 29.6485 79.3778 21.1392 75.3876C20.6573 74.5957 20.1784 73.8007 19.7042 73.0011C28.463 77.5384 40.6962 81.0855 54.5209 77.0503C50.0919 71.5073 45.8086 65.9256 41.5966 60.2493C30.6698 61.6145 18.5822 57.914 9.90712 54.3034C9.59408 53.6123 9.28415 52.9211 8.97886 52.2269C17.3766 55.8546 29.6392 59.9332 40.5645 58.8546C19.1959 29.8969 4.27092 5.89321 4.11441 5.62513L0 0.435444L4.71878 3.56103C4.99308 4.02592 17.1937 23.4551 34.3162 47.5501C36.7941 34.6573 26.5956 7.33901 23.7148 0C24.268 0.0387405 24.8275 0.0790307 25.39 0.12397C28.7667 8.74916 38.9962 36.6114 35.48 49.1819C46.3463 64.3775 59.5155 81.5318 73.8145 97.465C76.1901 90.6095 59.9665 54.3979 66.9277 36.6656C71.1753 25.8446 69.3204 15.005 67.1446 8.03944C67.7304 8.23934 68.3162 8.44389 68.8973 8.65309C70.994 15.8666 72.522 26.5373 68.3317 37.2111C61.3178 55.0767 78.8804 92.218 74.8961 98.666C77.6949 101.761 80.5354 104.806 83.4101 107.776C85.482 70.9184 85.0249 69.7438 80.0597 56.6263C77.2052 49.0796 74.5072 41.9545 78.3721 35.4321C81.7256 29.7713 80.9182 20.4798 79.4723 13.147C80.0566 13.4399 80.6346 13.7405 81.208 14.0458C82.5485 21.4127 83.0986 30.4067 79.6707 36.1945C73.5138 46.5816 85.9206 59.0809 85.9671 74.667C86.0074 88.7778 85.0063 106.351 84.8358 109.244C90.7168 115.253 96.7296 120.943 102.801 126.116C104.238 124.098 109.995 114.595 103.725 99.3416C98.6357 86.957 106.465 67.4969 112.089 56.1583C112.338 56.8262 112.583 57.4987 112.828 58.1697C107.405 69.4556 100.492 87.5087 105.121 98.7698C111.814 115.055 105.509 125.005 103.956 127.094C111.27 133.238 118.662 138.612 126 142.869L123.945 143.399C122.65 142.624 121.353 141.817 120.057 140.977C114.81 144.234 105.724 145.567 95.2698 141.338C88.9316 138.772 83.0971 139.726 78.5224 141.629C78.1117 141.276 77.6933 140.912 77.2672 140.54C82.2292 138.322 88.7239 137.066 95.8401 139.945C107.729 144.756 115.944 141.47 118.639 140.047C115.715 138.104 112.795 136.006 109.89 133.78C102.829 136.753 92.4029 136.13 84.6855 134.513C79.7079 133.472 74.9845 133.816 70.8422 134.783C70.4083 134.383 69.9712 133.979 69.5296 133.567C74.0872 132.376 79.384 131.87 84.9985 133.044" transform="translate(27 591)" id="Fill-3" fill="#A7CBD3" fill-rule="evenodd" stroke="none" />
    <path d="M0 7.70519L3.96744 0C5.74321 2.45802 7.2604 5.10702 8.47384 7.96855C27.1739 52.0158 41 109 41 109C41 109 11.9849 72.0496 0 7.70519" transform="translate(124 621)" id="Fill-5" fill="#195F6D" fill-rule="evenodd" stroke="none" />
    <path d="M132.967 0.386996C131.02 0.89354 102.951 -5.36165 63.867 18.3771C24.783 42.1159 0 74 0 74C0 74 50.8039 70.8138 93.211 51.9466C135.617 33.0825 132.967 0.386996 132.967 0.386996" transform="translate(175 655)" id="Fill-7" fill="#004A58" fill-rule="evenodd" stroke="none" />
    <path d="M0.0731532 66.283C22.8617 39.8485 60.164 8.73135 96 0C93.9518 23.3086 87.8286 41.4833 70.1846 56.2651C40.4069 66.3142 10.6725 69.9507 0.000607668 71C-0.0040229 69.5416 0.0175864 67.9646 0.0731532 66.283" transform="translate(179 658)" id="Fill-9" fill="#003842" fill-rule="evenodd" stroke="none" />
    <path d="M4.76397 136.884L27.818 151.27L10.3944 113.285C14.1109 100.455 18.7944 88.2202 24.4109 77.2231C39.9113 46.866 69.8165 0 69.8165 0C83.7371 16.1217 94.6019 32.4525 102.909 48.7615L87.9255 74.7731L110.898 66.3312C162.86 195.742 64.0576 318.505 64.0576 318.505L38.9071 325C38.9071 325 -0.490492 218.908 0.00462793 183.126C0.213507 168.084 1.81955 152.338 4.76397 136.884" transform="translate(126 405)" id="Fill-11" fill="#E0AA1A" fill-rule="evenodd" stroke="none" />
    <path d="M0.854182 195.019C0.541601 192.787 0.298654 190.665 0.129984 188.676C9.1871 201.869 32.2624 233.298 49.8784 238.555C50.0223 236.961 50.1786 235.362 50.3457 233.764C33.7108 232.078 11.7527 197.672 0 177.029C0.0665396 175.151 0.153196 173.263 0.261516 171.37C12.8468 194.041 35.5847 229.433 50.6753 230.789C52.116 218.344 54.3659 206.005 57.7625 194.799C60.5541 185.6 62.6803 173.382 64.2927 159.548C48.6002 152.94 27.6248 113.097 17.3498 91.7435C17.8388 90.5191 18.3386 89.3039 18.8477 88.0996C28.3505 108.043 49.7701 149.112 64.6455 156.417C65.755 146.248 66.603 135.292 67.2421 124.072C51.8096 110.296 39.0247 75.9839 33.4942 59.3311C34.1596 58.1438 34.8327 56.9519 35.5136 55.7554C40.2487 70.289 52.6839 105.116 67.4587 120.12C70.4128 63.9486 69.3497 3.22901 69.3188 2.29715L69.8929 0L70.4437 2.19189C70.4793 3.2383 73.9394 79.5844 69.1423 140.42C92.6695 142.028 112.486 120.679 122.651 107.039C122.894 108.419 123.123 109.796 123.337 111.172C120.757 114.495 117.684 118.137 114.173 121.758C103.766 132.484 92.9295 139.358 82.2228 142.121C77.7461 143.276 73.291 143.713 68.8994 143.412C67.5222 159.882 65.5848 175.049 62.8892 187.041C84.1555 188.784 110.59 173.918 125 164.484C124.885 165.785 124.763 167.08 124.629 168.371C114.135 175.119 98.5203 183.857 82.769 187.922C75.7932 189.722 68.7895 190.606 62.1944 189.993C61.7007 191.988 61.1855 193.881 60.6454 195.665C46.0129 243.917 52.9516 313.774 53.6386 320.24L50.6923 321C50.4881 319.161 46.4106 281.38 49.6184 241.603C32.64 236.99 11.6645 210.256 0.854182 195.019" transform="translate(126 407)" id="Fill-13" fill="#CFD5F1" fill-rule="evenodd" stroke="none" />
    <path d="M24.0489 130.911L0.595108 137C0.595108 137 -6.87366 85.1136 31.107 39.4314L38.9771 46.8067L36.439 33.391C38.7013 30.9721 41.1015 28.5781 43.649 26.2184L55.3216 41.423L52.7943 18.4111C61.1587 11.828 70.8278 5.61924 82 0C68.5128 74.1933 25.6635 128.873 24.0489 130.911" transform="translate(167 594)" id="Fill-15" fill="#6670A4" fill-rule="evenodd" stroke="none" />
    <path d="M67.0154 5.37263L77.5408 25.8101L79.4569 8.71423C86.6302 10.9342 93.8098 13.6956 100.767 17.121L105.3 27.4592L110.093 22.211C129.12 33.7142 145.507 51.0071 154 76.9022L138.966 84.4991C138.478 84.6248 120.077 87.4731 114.177 86.9316C105.348 86.1203 23.6382 80.7836 0 0.748057C0 0.748057 31.7703 -2.74713 67.0154 5.37263" transform="translate(0 657)" id="Fill-17" fill="#469AA8" fill-rule="evenodd" stroke="none" />
    <path d="M137 79.6652L135.464 83C83.1634 70.0407 7.53404 6.77668 4.4412 4.06229L0 0L6.442 1.80391C7.22336 2.48949 85.1161 70.4269 137 79.6652" transform="translate(2 658)" id="Fill-19" fill="#A7CBD3" fill-rule="evenodd" stroke="none" />
    <path d="M26.6421 41.2443L33.3801 47.5022L31.2059 36.1186C33.1447 34.0656 35.1998 32.0327 37.3802 30.0322L47.3734 42.9342L45.2116 23.4066C56.5428 14.5658 70.6724 6.519 88.2786 0C88.2786 0 98.0117 53.6767 80.6641 82.8824C63.3149 112.088 25.8027 117.49 25.8027 117.49L0.507623 124C0.507623 124 -5.87733 80.0076 26.6421 41.2443" transform="translate(174 604)" id="Fill-21" fill="#E0AA1A" fill-rule="evenodd" stroke="none" />
    <path d="M3.84693 118.007L0 119C46.1538 65.967 66.2956 3.1372 66.4982 2.49947L69 0L68.668 3.17462C68.4685 3.80768 48.813 65.1437 3.84693 118.007" transform="translate(193 605)" id="Fill-23" fill="#F3DDA3" fill-rule="evenodd" stroke="none" />
    <path d="M0 108.611C0 108.611 20.847 49.8752 49.2255 24.6364C77.6055 -0.60243 135 0.00125827 135 0.00125827C135 0.00125827 129.67 12.0332 120.55 28.0062L99.2206 31.0417L114.197 38.7054C99.2221 62.9613 77.4267 91.5669 53.0565 102.165C7.60927 121.929 0 108.611 0 108.611" transform="translate(174 619)" id="Fill-25" fill="#AD2500" fill-rule="evenodd" stroke="none" />
    <path d="M0 107C0.00621532 106.983 0.264151 106.242 1.12342 103.956C8.41709 95.2344 32.1689 67.3643 54.9341 45.0392C55.6193 38.3425 50.6004 30.5252 46.3647 25.2384C46.9909 24.6175 47.6202 24.0152 48.2542 23.4285C52.2491 28.3822 56.9867 35.6096 57.5228 42.5211C58.5856 41.4971 66.3252 34.5498 69.1423 32.3507C70.0824 25.5108 64.9967 18.9915 60.3663 14.5949C61.154 14.1405 61.9527 13.7001 62.7607 13.269C67.1223 17.5441 71.6781 23.5903 71.832 30.2995C74.604 28.239 77.404 26.3014 80.1978 24.4914C84.331 18.4141 82.8766 10.9983 80.9048 5.81121C81.7423 5.54819 82.5798 5.29296 83.4189 5.04707C85.1669 9.67238 86.4923 15.9256 84.3993 21.8551C86.901 20.3346 89.3809 18.9121 91.8158 17.5861C96.4104 8.95493 96.6824 4.21289 96.2426 1.87534C97.1003 1.69947 97.9518 1.52984 98.7971 1.3711C99.2897 4.00435 98.9976 8.43201 95.7236 15.5147C113.218 6.50065 127.361 1.5952 127.596 1.53139L133 0L127.82 4.55372C127.459 4.65332 94.2304 14.4471 66.7774 37.5814C78.6937 35.9364 92.8755 43.9171 101.066 48.5269C102.428 49.2926 103.891 50.1143 105.044 50.7072C104.551 51.4216 104.055 52.1359 103.555 52.8487C102.557 52.3289 101.333 51.6441 99.7978 50.7788C90.6939 45.657 73.855 36.1823 62.3163 41.5204C60.9194 42.8153 54.0857 49.4949 52.4542 51.1337C64.212 49.9478 84.2859 59.6404 94.4371 65.0609C93.8917 65.7442 93.3416 66.4258 92.7885 67.1028C79.3774 59.9968 56.9105 50.0318 48.8011 54.8361C24.3485 79.8598 0 107 0 107" transform="translate(174 621)" id="Fill-27" fill="#DE9C8C" fill-rule="evenodd" stroke="none" />
    <path d="M0 148.011C157.668 -21.23 315.334 290.025 473 120.783L473 67.9283C315.334 219.018 157.668 -110.388 0 40.7L0 148.011Z" transform="translate(57 170)" id="Fill-29" fill="#CEDEFF" fill-rule="evenodd" stroke="none" />
    <path d="M0 8.20881C47.3328 28.6232 94.6672 60.5371 142 78L142 71.3289C94.6672 53.3534 47.3328 20.927 0 0L0 8.20881Z" transform="translate(230 202)" id="Fill-31" fill="#9173F1" fill-rule="evenodd" stroke="none" />
    <path d="M0 6.23132C38 21.8937 76 44.9738 114 62L114 56.7098C76 39.3689 38 15.9756 0 0L0 6.23132Z" transform="translate(230 218)" id="Fill-33" fill="#9173F1" fill-rule="evenodd" stroke="none" />
    <path d="M0 83.2456C15.3333 83.7519 30.6667 86.6273 46 91L46 12.4151C30.6667 6.49093 15.3333 2.05938 0 0L0 83.2456Z" transform="translate(168 178)" id="Fill-35" fill="#FFFFFF" fill-rule="evenodd" stroke="none" />
    <path d="M0 6.34632C16.3333 12.5753 32.6667 20.1376 49 28L49 22.062C32.6667 14.064 16.3333 6.36461 0 0L0 6.34632Z" transform="translate(230 236)" id="Fill-37" fill="#9173F1" fill-rule="evenodd" stroke="none" />
    <path d="M0 62.6177C9.99949 63.521 20.0005 65.3976 30 68L30 7.70126C20.0005 4.32641 9.99949 1.6773 0 0L0 62.6177Z" transform="translate(174 188)" id="Fill-39" fill="#A98FFF" fill-rule="evenodd" stroke="none" />
    <path d="M0 61.6853C15.3333 65.0946 30.6667 66.7243 46 65.694L46 8.70737C30.6667 8.17194 15.3333 4.97497 0 0L0 61.6853Z" transform="translate(385 274)" id="Fill-41" fill="#FFFFFF" fill-rule="evenodd" stroke="none" />
    <path d="M0 45.6204C9.99897 47.6423 19.9995 48.8498 30 49L30 5.68475C19.9995 4.76671 9.99897 2.78974 0 0L0 45.6204Z" transform="translate(392 283)" id="Fill-43" fill="#A98FFF" fill-rule="evenodd" stroke="none" />
    <path d="M0 47C31.6667 17.9161 63.3333 7.95945 95 9.23386L95 0.17255C63.3333 -1.44816 31.6667 8.16223 0 36.8982L0 47Z" transform="translate(62 182)" id="Fill-45" fill="#A98FFF" fill-rule="evenodd" stroke="none" />
    <path d="M0 46C31.6667 17.6424 63.3333 7.90377 95 9.02416C95 6.06456 95 3.10496 95 0.145357C63.3333 -1.31682 31.6667 8.08156 0 36.0974L0 46Z" transform="translate(64 199)" id="Fill-47" fill="#A98FFF" fill-rule="evenodd" stroke="none" />
    <path d="M0 63C4.13022 57.4016 8.25889 51.7179 12.3891 45.9364C11.1072 46.1366 9.82365 46.3166 8.5417 46.4764C4.71914 46.9605 1.61915 44.7029 1.61915 41.6895L1.61915 35.7436C1.61915 32.7225 4.71914 30.1949 8.5417 29.8411C30.7203 27.765 52.8973 19.5536 75.0759 2.56451C78.9 -0.35105 82 -0.94068 82 1.62731L82 6.70433C82 9.26302 78.9 14.1135 75.0759 17.1609C64.5048 25.5833 53.9338 32.0103 43.3627 36.7304C28.9085 48.0234 14.4542 56.5358 0 63" transform="translate(438 256)" id="Fill-49" fill="#CDBDFF" fill-rule="evenodd" stroke="none" />
    <path d="M11 5.06685C11 5.07164 9.15176 1.70773 5.5 0.35641C2.24441 -0.846357 0 1.12471 0 4.3225C0 8.03942 3.05911 13.3824 11 20C18.9409 19.163 22 16.2495 22 12.6333C22 9.5329 19.754 5.9198 16.4984 4.60203C12.8482 3.13092 11 5.06844 11 5.06685" transform="translate(222 251)" id="Fill-51" fill="#A98FFF" fill-rule="evenodd" stroke="none" />
    <path d="M1.53806 24.3713C1.53806 24.3713 9.03107 21.7156 15.981 28.654C22.9294 35.5925 58.2175 90.6943 58.2175 90.6943C58.2175 90.6943 109.038 48.1106 112.172 44.9807C115.305 41.8508 114.624 31.5112 115.305 29.4706C115.986 27.43 122.253 22.6669 123.889 22.6669C125.524 22.6669 120.756 29.4706 120.756 29.4706C120.756 29.4706 126.479 28.1102 128.386 22.6669C130.293 17.2253 129.338 3.21197 131.383 3.21197C133.427 3.21197 133.29 10.1504 133.29 10.1504C133.29 10.1504 132.473 -1.32484 135.197 0.126998C137.924 1.57884 137.241 10.967 137.241 10.967C137.241 10.967 138.059 3.21197 139.831 3.21197C141.601 3.21197 140.647 12.7365 140.647 12.7365C140.647 12.7365 142.146 7.15688 143.645 7.15688C145.144 7.15688 141.601 29.1979 138.603 34.0957C135.605 38.9936 118.439 50.286 118.439 50.286C118.439 50.286 69.118 116 60.9422 116C52.768 116 10.53 71.3741 3.71816 54.5036C-3.09368 37.6331 1.53806 24.3713 1.53806 24.3713" transform="translate(383 257)" id="Fill-53" fill="#FD5E5A" fill-rule="evenodd" stroke="none" />
    <path d="M14.3351 46.9784L1.94287 45.217C0.755473 45.0469 -0.0958704 43.9346 0.00868062 42.688L3.39613 2.14202C3.50666 0.806561 4.66419 -0.159155 5.93523 0.0218194L22.057 2.3152C23.328 2.49461 24.1973 3.75051 23.9613 5.06725L16.8474 45.0828C16.6278 46.3138 15.5226 47.1469 14.3351 46.9784" transform="translate(502 242)" id="Fill-55" fill="#111F59" fill-rule="evenodd" stroke="none" />
    <path d="M2.89661 0L0 30.0212L11.3974 31L17 2.46937L2.89661 0Z" transform="translate(506 247)" id="Fill-57" fill="#749CFE" fill-rule="evenodd" stroke="none" />
    <path d="M361 19C361 29.4925 280.188 38 180.499 38C80.8136 38 0 29.4925 0 19C0 8.50751 80.8136 0 180.499 0C280.188 0 361 8.50751 361 19" transform="translate(132 718)" id="Fill-59" fill="#235893" fill-rule="evenodd" stroke="none" />
    <path d="M14.4138 0C14.4138 0 25.6416 41.6505 25.6416 58.9945C25.6416 76.3401 46.141 75.1576 44.9811 70.9968C44.9811 70.9968 48.3325 74.0601 46.3993 78.8338C44.4661 83.6059 39.31 84.1229 39.31 84.1229C39.31 84.1229 41.6298 87.6057 39.4399 90.8299C37.2484 94.0557 31.8355 99.4733 23.0713 95.732C14.307 91.9908 0 65.9445 0 65.9445L14.4138 0Z" transform="translate(380 213)" id="Fill-61" fill="#0E1B29" fill-rule="evenodd" stroke="none" />
    <path d="M48.179 0.0664732C48.179 0.0664732 66.4021 2.62027 69.3559 20.551C72.3097 38.4818 64.7288 72.9604 54.2893 81.0926C43.8497 89.2248 40.319 114.574 31.4047 120.525C22.4904 126.479 2.83558 126.124 6.27435 108.693C6.27435 108.693 15.1122 112.618 19.5974 102.223C19.5974 102.223 4.65088 108.068 0.695904 93.9405C-3.25751 79.8134 10.9233 81.3326 10.9233 81.3326C10.9233 81.3326 2.44726 88.8577 10.9997 88.5372C19.5522 88.2181 25.728 81.8267 27.576 72.4695C29.4209 63.1123 14.3714 66.3846 19.206 49.4729C24.0406 32.5612 42.2044 -1.70988 48.179 0.0664732" transform="translate(322 204)" id="Fill-63" fill="#0E1B29" fill-rule="evenodd" stroke="none" />
    <path d="M12.1748 0C11.1001 1.03019 0 31.2691 0 31.2691L20.4101 33L20.4246 20.7816L24 2.74871L12.1748 0Z" transform="translate(244 693)" id="Fill-65" fill="#FC7575" fill-rule="evenodd" stroke="none" />
    <path d="M0 10.5036L10.2611 31L24 17.0938L10.4349 0L0 10.5036Z" transform="translate(456 696)" id="Fill-67" fill="#FC7575" fill-rule="evenodd" stroke="none" />
    <path d="M138 15.4014C138 15.4014 98.2558 95.0745 89.2211 120.635C80.1849 146.194 78.0293 152.21 59.9584 181.557C41.8859 210.903 19.2166 277 19.2166 277L0 277C0 277 17.0842 162.355 41.1787 139.633C65.2733 116.915 87.6878 0 87.6878 0L132.243 5.4767L138 15.4014Z" transform="translate(247 429)" id="Fill-69" fill="#45156E" fill-rule="evenodd" stroke="none" />
    <path d="M23.0203 0C23.0203 0 0 23.3622 0 38.8289C0 54.2957 74.5661 151.957 74.5661 164.694C74.5661 177.43 81.1364 211.654 89.3474 228.028C97.5568 244.405 128.93 309 128.93 309L148 292.217C148 292.217 111.511 199.829 111.511 180.724C111.511 161.618 99.3825 130.738 89.3474 109.813C79.3123 88.8892 51.7044 20.0123 51.7044 20.0123L23.0203 0Z" transform="translate(328 409)" id="Fill-71" fill="#9070A9" fill-rule="evenodd" stroke="none" />
    <path d="M56.8401 0.805388C56.8401 0.805388 32.6013 -2.68002 28.186 7.04464C23.1716 18.0849 32.917 35.456 35.1655 54.4424C39.3929 90.1523 37.779 114.903 28.186 123.304C14.1423 135.599 0 162.827 0 162.827C0 162.827 49.8129 175.38 79.4065 171.117C79.4065 171.117 75.9398 146.402 78.4748 124.995C81.8044 96.8497 94 66.514 94 55.918C94 37.2639 89.483 34.5085 72.7858 2.76399C70.3002 -1.96243 56.8401 0.805388 56.8401 0.805388" transform="translate(320 279)" id="Fill-73" fill="#FAC338" fill-rule="evenodd" stroke="none" />
    <path d="M6.91043 168C-6.38628 96.2338 27.071 71.1772 18.9161 39.3348C16.432 30.0289 7.70631 16.4714 0 0C27.5855 43.095 28.5051 42.1945 17.2005 82.2222C7.30757 115.996 4.44725 131.757 6.91043 168" transform="translate(392 282)" id="Fill-75" fill="#FFF7CF" fill-rule="evenodd" stroke="none" />
    <path d="M39.6561 113.498C39.6561 105.231 58.51 109.352 47.605 98.5189C36.7001 87.6842 50.2849 58.7351 50.2849 43.8305C50.2849 28.9274 29.8961 0 29.8961 0L27.1164 9.4973C27.1975 20.157 33.8066 34.2014 35.6176 49.2641C39.8994 84.896 38.2647 109.592 28.5484 117.975C14.3257 130.244 0 157.412 0 157.412C0 157.412 20.0347 162.385 42.353 165C48.3195 146.38 39.6561 121.258 39.6561 113.498" transform="translate(318 285)" id="Fill-77" fill="#A67076" fill-rule="evenodd" stroke="none" />
    <path d="M23.0882 6.7921C23.0882 6.7921 14.0577 44.2643 16.5321 46.7684C19.3274 49.5955 24 61 24 61C24 61 3.05775 46.7312 0 37.275L4.5237 0L23.0882 6.7921Z" transform="translate(376 241)" id="Fill-79" fill="#FC7575" fill-rule="evenodd" stroke="none" />
    <path d="M0.904713 0L20 6.80934C20 6.80934 19.5105 8.84047 18.7874 12C12.4497 11.5268 2.67151 10.3113 0 7.26848L0.904713 0Z" transform="translate(380 241)" id="Fill-81" fill="#FD5E5A" fill-rule="evenodd" stroke="none" />
    <path d="M0 12.0008L27.7519 21C27.7519 21 32.9728 20.0919 31.8388 14.2487C30.7048 8.40547 23.2144 3.94223 16.0688 1.88774C8.92474 -0.166738 0.4965 0.00343717 0.4965 0.00343717L0 12.0008Z" transform="translate(379 201)" id="Fill-83" fill="#0E1B29" fill-rule="evenodd" stroke="none" />
    <path d="M3.28073 4.36899C2.24924 4.79925 1.06157 4.31271 0.631178 3.27973C0.200785 2.24856 0.687474 1.06308 1.72078 0.631008C2.75227 0.200749 3.93994 0.689102 4.37033 1.72027C4.80073 2.75144 4.31404 3.93873 3.28073 4.36899M4.80617 1.53691C4.2759 0.264289 2.8122 -0.338436 1.53918 0.193487C0.264345 0.72541 -0.338569 2.19047 0.19352 3.46309C0.72561 4.73571 2.18931 5.33844 3.46415 4.80651C4.73717 4.27459 5.33826 2.81135 4.80617 1.53691" transform="translate(357 425)" id="Fill-85" fill="#000000" fill-rule="evenodd" stroke="none" />
    <path d="M3.51839 37.7472C-0.0638628 79.1088 35.7771 104.222 52.6571 84.002C66.4144 68.479 70.9695 43.4344 71.701 22.3774C71.953 16.2041 72.3541 7.38845 69.0331 1.8297L70.4562 0C74.3043 5.94265 74.1153 16.3372 73.9093 22.5105C73.31 44.1279 68.7918 69.6616 54.638 85.8719C36.0967 108.277 -3.28189 81.8426 0.218906 37.3819L3.51839 37.7472Z" transform="translate(290 427)" id="Fill-87" fill="#853846" fill-rule="evenodd" stroke="none" />
    <path d="M7.19014 32L0 29.2565L14 0L7.19014 32Z" transform="translate(344 430)" id="Fill-89" fill="#000000" fill-rule="evenodd" stroke="none" />
    <path d="M18.6545 0C16.2075 3.00831 0 46.6754 0 46.6754C0 46.6754 54.5685 66.8448 74.5434 69L92 18.3808L18.6545 0Z" transform="translate(267 411)" id="Fill-91" fill="#B14A5D" fill-rule="evenodd" stroke="none" />
    <path d="M0 36C0 36 11.8346 4.34917 16.7485 0L54 7.74376L17.4423 1.69021C17.4423 1.69021 11.085 8.63376 0 36" transform="translate(272 419)" id="Fill-93" fill="#D38792" fill-rule="evenodd" stroke="none" />
    <path d="M70.978 19.7468C70.4934 11.5254 67.4676 6.40199 64.1348 3.22826C59.1489 -1.52227 51.1184 -0.909496 46.5921 4.27431C30.6994 22.4749 1.41485 76.0166 0.112276 88.7611C-1.46608 104.181 14.1711 161.218 11.0143 167.956C7.85761 174.692 9.01061 189.67 11.1624 189.67C13.3157 189.67 18.1863 190.86 20.1947 190.86C22.2031 190.86 24.841 192.994 26.3476 191.422C26.6297 191.127 26.2838 188.922 26.3118 187.602C28.9357 188.788 31.3881 192.19 32.2856 191.298C33.7564 189.836 31.7652 188.634 29.6789 185.022C27.5926 181.412 25.2274 170.346 25.2274 170.346C24.6696 165.11 20.1479 93.3027 23.9591 81.6538C27.9759 69.3798 72.1263 39.2085 70.978 19.7468" transform="translate(299 285)" id="Fill-95" fill="#FC7575" fill-rule="evenodd" stroke="none" />
    <path d="M14.1229 0.00278672C14.1229 0.00278672 24.1398 -0.24391 27.6434 3.90494C31.1469 8.05378 34.0096 19.0372 37.1191 21.152C40.2285 23.2683 42.6067 23.9991 42.6067 23.9991C42.6067 23.9991 43.5312 24.4769 41.1853 26.3093C38.8409 28.1386 39.8866 29.4341 41.5012 29.1145C43.1172 28.7934 43.5619 31.9228 42.3905 32.5279C42.3905 32.5279 43.4914 33.2835 43.496 34.8972C43.5021 36.5108 42.3077 36.9204 42.3077 36.9204C42.3077 36.9204 42.2279 39.2725 43.4254 41.0211C44.6229 42.7713 45.1826 47.9953 32.0071 48C32.0071 48 12.283 47.2537 10.1195 42.0917C7.95604 36.9328 -4.22128 19.0326 1.52699 10.3811C7.27526 1.73121 14.1229 0.00278672 14.1229 0.00278672" transform="translate(372 204)" id="Fill-97" fill="#FC7575" fill-rule="evenodd" stroke="none" />
    <path d="M19.3593 0.00843277C21.024 -0.318363 34.0405 8.90625 32.9333 18.422C31.8245 27.9378 24.2592 25.2724 20.4387 28.5016C16.6183 31.7324 23.8932 41.7717 23.9951 46.3994C24.0971 51.0288 17.0738 79 17.0738 79C17.0738 79 -3.61915 26.8506 0.556503 15.6156C4.73061 4.38068 19.3593 0.00843277 19.3593 0.00843277" transform="translate(359 200)" id="Fill-99" fill="#1B3753" fill-rule="evenodd" stroke="none" />
    <path d="M6.59583 5.06783C6.59583 5.06783 1.72433 -1.52706 0.443318 0.32948C-0.83769 2.18751 0.518311 13.0387 6.3433 12.9999C12.1698 12.9626 6.59583 5.06783 6.59583 5.06783" transform="translate(374 224)" id="Fill-101" fill="#FC7575" fill-rule="evenodd" stroke="none" />
    <path d="M35.7713 22.3569C35.7713 22.3569 39.48 84.6284 17.0281 87.7286C-5.4238 90.8287 -0.687743 66.4366 3.57707 62.2297C3.57707 62.2297 4.94998 69.8189 9.56508 68.3014C14.1786 66.7823 13.0178 67.996 9.94837 58.2832C6.87739 48.5688 16.106 51.3279 21.3353 42.3592C26.5646 33.3904 13.3304 26.9405 13.6445 19.1234C13.9587 11.3063 11.681 0 11.681 0L35.7713 22.3569Z" transform="translate(347 224)" id="Fill-103" fill="#1B3753" fill-rule="evenodd" stroke="none" />
    <path d="M2 2C2 3.10579 1.55176 4 1.0009 4C0.448245 4 0 3.10579 0 2C0 0.895868 0.448245 0 1.0009 0C1.55176 0 2 0.895868 2 2" transform="translate(405 222)" id="Fill-105" fill="#1B3753" fill-rule="evenodd" stroke="none" />
    <path d="M57 2.71959C57 2.71959 32.8526 24.4103 27.8518 26.025C22.8494 27.6382 19.456 34.4498 14.8127 36.7791C10.1679 39.1099 0 22.2276 0 22.2276L15.5449 5.22362C15.5449 5.22362 19.1 6.81184 32.1375 3.76488C45.1781 0.716361 55.9632 -2.38833 57 2.71959" transform="translate(464 704)" id="Fill-107" fill="#E9BBBD" fill-rule="evenodd" stroke="none" />
    <path d="M26.345 5.11994C26.345 5.11994 28.6178 7.07733 32.1943 10.6614C36.4366 14.9147 57.3967 27.7498 54.7737 30.378C52.1524 33.0077 24.5459 32.2053 21.9964 29.6492C19.4469 27.0932 12.2362 23.9542 6.84652 23.9542C1.45684 23.9542 0 19.132 0 13.73C0 8.32479 7.72031 0 7.72031 0L26.345 5.11994Z" transform="translate(240 713)" id="Fill-109" fill="#E9BBBD" fill-rule="evenodd" stroke="none" />
    <path d="M4.98613 0C4.98613 0 5.51763 3.97108 0 8L4.98613 0Z" transform="translate(402 218)" id="Fill-111" fill="#1B3753" fill-rule="evenodd" stroke="none" />
    <path d="M0.0225435 4.12741C0.282491 5.66205 2.722 6.4018 5.47067 5.77942C8.21935 5.15703 10.2374 3.409 9.97746 1.87259C9.71751 0.33795 7.278 -0.401805 4.52933 0.220585C1.78065 0.842975 -0.237404 2.59278 0.0225435 4.12741" transform="translate(394 229)" id="Fill-113" fill="#FD5E5A" fill-rule="evenodd" stroke="none" />
    <path d="M8 0.613806C8 0.613806 5.26851 -0.254588 3.37138 0.0744307C1.47274 0.40345 -0.127487 1.38646 0.00802203 2C0.00802203 2 1.89449 0.767528 3.58759 0.708196C5.27916 0.648865 6.2932 1.63457 6.95095 1.51996C7.60718 1.40669 8 0.613806 8 0.613806" transform="translate(396 218)" id="Fill-115" fill="#1B3753" fill-rule="evenodd" stroke="none" />
    <path d="M0.0483643 1.85981C0.0483643 1.85981 3.04553 -0.807021 15.8456 0.2462C28.6441 1.30096 34 13 34 13C34 13 25.1595 9.34136 20.2501 10.281C15.3408 11.2206 3.86794 11.5246 1.71206 10.109C-0.443825 8.69346 0.0483643 1.85981 0.0483643 1.85981" transform="translate(376 199)" id="Fill-117" fill="#1B3753" fill-rule="evenodd" stroke="none" />
    <path d="M16.4162 7.62952C11.8058 3.04355 1.05187 2.07702 0.945813 2.06771C-0.443858 1.95135 -0.231742 -0.139949 1.12206 0.00743503C1.59464 0.0462203 12.7385 1.04533 17.8854 6.16654C22.5536 10.8099 44.233 11.9471 46.2263 10.1676C47.2526 9.2523 48.6157 10.7168 47.6955 11.6322C44.8912 14.4232 21.6864 12.8717 16.4162 7.62952" transform="translate(241 730)" id="Fill-119" fill="#B880A7" fill-rule="evenodd" stroke="none" />
    <path d="M1.05155 30C0.86051 30 0.669469 29.9503 0.495796 29.8433C0.00319527 29.5407 -0.148374 28.9045 0.159501 28.4189C0.367909 28.0899 5.37128 20.3054 13.5466 17.8057C21.2671 15.4441 36.5867 2.86182 38.0471 0.497119C38.3503 0.00990458 38.9929 -0.146811 39.4934 0.151104C39.9907 0.447467 40.1486 1.08364 39.847 1.57241C38.025 4.51897 22.0787 17.3634 14.1718 19.7809C6.75751 22.0478 1.99254 29.4383 1.94518 29.5143C1.74624 29.8278 1.40363 30 1.05155 30" transform="translate(476 707)" id="Fill-121" fill="#B880A7" fill-rule="evenodd" stroke="none" />
    <path d="M0 756L668 756L668 0L0 0L0 756Z" id="Clip-124" fill="none" fill-rule="evenodd" stroke="none" />
    <g clip-path="url(#mask_1)">
      <path d="M0 42L67 42L67 0L0 0L0 42Z" transform="translate(512 169)" id="Fill-123" fill="#95B3FF" fill-rule="evenodd" stroke="none" />
      <path d="M53 0L0 0L26.0565 25L53 0Z" transform="translate(520 172)" id="Fill-125" fill="#FFFFFF" fill-rule="evenodd" stroke="none" />
      <path d="M29.9753 28.0183L0 0L0 32L60 32L60 0.87734L29.9753 28.0183Z" transform="translate(516 174)" id="Fill-126" fill="#FFFFFF" fill-rule="evenodd" stroke="none" />
      <path d="M28.8071 6.79139C86.3825 25.5832 111.278 58.9646 78.1844 142.205C74.7067 150.936 70.841 159.517 66.3694 167.773C66.0974 168.273 65.3462 167.862 65.6167 167.361C82.8584 126.431 106.91 67.9761 76.0854 35.8881C49.6486 8.28397 -4.06419 1.70667 1.05654 2.49421C0.37646 2.38837 -0.0903257 1.7487 0.0147783 1.06389C0.118337 0.379076 0.753598 -0.0909533 1.43368 0.014881C7.91922 1.01253 18.5718 3.45605 28.8071 6.79139" transform="translate(467 99)" id="Fill-127" fill="#95B3FF" fill-rule="evenodd" stroke="none" />
      <path d="M89.0563 87.2191C91.6825 99.083 91.3411 106.819 89.8374 114.303C89.413 116.397 87.9815 120.387 87.9953 120.346C75.6483 153.798 28.5128 196.208 0.649804 217.915C0.474516 218.053 0.222348 218.02 0.0870385 217.842C-0.154366 217.529 0.185446 217.229 0.162381 217.27C23.594 198.775 47.2071 175.935 59.8832 160.934C73.0467 145.891 80.0889 133.252 79.3401 134.504C89.6344 116.987 96.4568 99.0179 75.7759 56.9718C60.9764 27.0671 39.6559 1.64039 39.988 2.04494C39.5529 1.51328 39.6267 0.725868 40.1526 0.28721C40.6815 -0.152999 41.4626 -0.0785975 41.8977 0.451513C60.1769 22.7208 82.5614 58.6707 89.0563 87.2191" transform="translate(533 52)" id="Fill-128" fill="#95B3FF" fill-rule="evenodd" stroke="none" />
      <path d="M0 30L48 30L48 0L0 0L0 30Z" transform="translate(437 46)" id="Fill-129" fill="#95B3FF" fill-rule="evenodd" stroke="none" />
      <path d="M38 0L0 0L18.6823 18L38 0Z" transform="translate(443 48)" id="Fill-130" fill="#FFFFFF" fill-rule="evenodd" stroke="none" />
      <path d="M21.4823 21.0135L0 0L0 24L43 24L43 0.656772L21.4823 21.0135Z" transform="translate(440 50)" id="Fill-131" fill="#FFFFFF" fill-rule="evenodd" stroke="none" />
      <path d="M0 42L67 42L67 0L0 0L0 42Z" transform="translate(379 88)" id="Fill-132" fill="#95B3FF" fill-rule="evenodd" stroke="none" />
      <path d="M53 0L0 0L26.0565 25L53 0Z" transform="translate(386 91)" id="Fill-133" fill="#FFFFFF" fill-rule="evenodd" stroke="none" />
      <path d="M29.9753 28.0183L0 0L0 32L60 32L60 0.87734L29.9753 28.0183Z" transform="translate(383 94)" id="Fill-134" fill="#FFFFFF" fill-rule="evenodd" stroke="none" />
      <path d="M0 42L67 42L67 0L0 0L0 42Z" transform="translate(507 96)" id="Fill-135" fill="#95B3FF" fill-rule="evenodd" stroke="none" />
      <path d="M53 0L0 0L26.0565 25L53 0Z" transform="translate(514 100)" id="Fill-136" fill="#FFFFFF" fill-rule="evenodd" stroke="none" />
      <path d="M29.9753 28.0183L0 0L0 32L60 32L60 0.87734L29.9753 28.0183Z" transform="translate(511 103)" id="Fill-137" fill="#FFFFFF" fill-rule="evenodd" stroke="none" />
      <path d="M0 42L67 42L67 0L0 0L0 42Z" transform="translate(289 131)" id="Fill-138" fill="#95B3FF" fill-rule="evenodd" stroke="none" />
      <path d="M53 0L0 0L26.0565 25L53 0Z" transform="translate(297 135)" id="Fill-139" fill="#FFFFFF" fill-rule="evenodd" stroke="none" />
      <path d="M29.9753 28.0183L0 0L0 32L60 32L60 0.87734L29.9753 28.0183Z" transform="translate(292 138)" id="Fill-140" fill="#FFFFFF" fill-rule="evenodd" stroke="none" />
      <path d="M0 42L67 42L67 0L0 0L0 42Z" transform="translate(225 190)" id="Fill-141" fill="#95B3FF" fill-rule="evenodd" stroke="none" />
      <path d="M53 0L0 0L26.0565 25L53 0Z" transform="translate(233 193)" id="Fill-142" fill="#FFFFFF" fill-rule="evenodd" stroke="none" />
      <path d="M29.9753 28.0183L0 0L0 32L60 32L60 0.87734L29.9753 28.0183Z" transform="translate(229 196)" id="Fill-143" fill="#FFFFFF" fill-rule="evenodd" stroke="none" />
      <path d="M0 29L47 29L47 0L0 0L0 29Z" transform="translate(228 92)" id="Fill-144" fill="#95B3FF" fill-rule="evenodd" stroke="none" />
      <path d="M37 0L0 0L18.1907 17L37 0Z" transform="translate(234 94)" id="Fill-145" fill="#FFFFFF" fill-rule="evenodd" stroke="none" />
      <path d="M20.9822 20.138L0 0L0 23L42 23L42 0.631126L20.9822 20.138Z" transform="translate(231 96)" id="Fill-146" fill="#FFFFFF" fill-rule="evenodd" stroke="none" />
      <path d="M0 29L47 29L47 0L0 0L0 29Z" transform="translate(153 252)" id="Fill-147" fill="#95B3FF" fill-rule="evenodd" stroke="none" />
      <path d="M37 0L0 0L18.1907 17L37 0Z" transform="translate(158 254)" id="Fill-148" fill="#FFFFFF" fill-rule="evenodd" stroke="none" />
      <path d="M20.983 20.1378L0 0L0 23L42 23L42 0.629599L20.983 20.1378Z" transform="translate(155 255)" id="Fill-149" fill="#FFFFFF" fill-rule="evenodd" stroke="none" />
      <path d="M0 29L47 29L47 0L0 0L0 29Z" transform="translate(45 328)" id="Fill-150" fill="#95B3FF" fill-rule="evenodd" stroke="none" />
      <path d="M37 0L0 0L18.1907 17L37 0Z" transform="translate(51 331)" id="Fill-151" fill="#FFFFFF" fill-rule="evenodd" stroke="none" />
      <path d="M20.983 20.1378L0 0L0 23L42 23L42 0.629599L20.983 20.1378Z" transform="translate(48 333)" id="Fill-152" fill="#FFFFFF" fill-rule="evenodd" stroke="none" />
      <path d="M0 48L76 48L76 0L0 0L0 48Z" transform="translate(555 58)" id="Fill-153" fill="#95B3FF" fill-rule="evenodd" stroke="none" />
      <path d="M59 0L0 0L29.0054 27L59 0Z" transform="translate(565 63)" id="Fill-154" fill="#FFFFFF" fill-rule="evenodd" stroke="none" />
      <path d="M33.9721 32.3957L0 0L0 37L68 37L68 1.01588L33.9721 32.3957Z" transform="translate(560 65)" id="Fill-155" fill="#FFFFFF" fill-rule="evenodd" stroke="none" />
      <path d="M0 48L76 48L76 0L0 0L0 48Z" transform="translate(536 0)" id="Fill-156" fill="#95B3FF" fill-rule="evenodd" stroke="none" />
      <path d="M59 0L0 0L29.007 27L59 0Z" transform="translate(546 5)" id="Fill-157" fill="#FFFFFF" fill-rule="evenodd" stroke="none" />
      <path d="M33.9729 32.3957L0 0L0 37L68 37L68 1.01588L33.9729 32.3957Z" transform="translate(541 6)" id="Fill-158" fill="#FFFFFF" fill-rule="evenodd" stroke="none" />
      <path d="M0 41L65 41L65 0L0 0L0 41Z" transform="translate(526 222)" id="Fill-159" fill="#95B3FF" fill-rule="evenodd" stroke="none" />
      <path d="M50 0L0 0L24.5808 24L50 0Z" transform="translate(533 226)" id="Fill-160" fill="#FFFFFF" fill-rule="evenodd" stroke="none" />
      <path d="M28.4763 27.1433L0 0L0 31L57 31L57 0.850539L28.4763 27.1433Z" transform="translate(530 228)" id="Fill-161" fill="#FFFFFF" fill-rule="evenodd" stroke="none" />
      <path d="M0 41L65 41L65 0L0 0L0 41Z" transform="translate(603 86)" id="Fill-162" fill="#95B3FF" fill-rule="evenodd" stroke="none" />
      <path d="M50 0L0 0L24.5816 24L50 0Z" transform="translate(610 89)" id="Fill-163" fill="#FFFFFF" fill-rule="evenodd" stroke="none" />
      <path d="M28.4763 27.1419L0 0L0 31L57 31L57 0.850497L28.4763 27.1419Z" transform="translate(607 91)" id="Fill-164" fill="#FFFFFF" fill-rule="evenodd" stroke="none" />
      <path d="M0 41L65 41L65 0L0 0L0 41Z" transform="translate(583 152)" id="Fill-165" fill="#95B3FF" fill-rule="evenodd" stroke="none" />
      <path d="M50 0L0 0L24.5824 24L50 0Z" transform="translate(591 156)" id="Fill-166" fill="#FFFFFF" fill-rule="evenodd" stroke="none" />
      <path d="M28.4763 27.1419L0 0L0 31L57 31L57 0.850497L28.4763 27.1419Z" transform="translate(587 158)" id="Fill-167" fill="#FFFFFF" fill-rule="evenodd" stroke="none" />
      <path d="M0 44L70 44L70 0L0 0L0 44Z" transform="translate(451 137)" id="Fill-168" fill="#95B3FF" fill-rule="evenodd" stroke="none" />
      <path d="M55 0L0 0L27.0386 25L55 0Z" transform="translate(460 142)" id="Fill-169" fill="#FFFFFF" fill-rule="evenodd" stroke="none" />
      <path d="M30.9754 29.7694L0 0L0 34L62 34L62 0.933868L30.9754 29.7694Z" transform="translate(455 143)" id="Fill-170" fill="#FFFFFF" fill-rule="evenodd" stroke="none" />
      <path d="M3.50027 3.05147C3.50027 3.05147 0.927533 -1.01125 0.155249 0.238947C-0.617035 1.48914 1.67669 8.26706 2.97 7.99185C4.26331 7.71664 4.21706 5.22296 3.50027 3.05147" transform="translate(377 227)" id="Fill-171" fill="#FD5E5A" fill-rule="evenodd" stroke="none" />
    </g>
  </g>
</svg>