<?xml version="1.0" encoding="utf-8"?>
<svg width="679px" height="610px" viewbox="0 0 679 610" version="1.1" xmlns:xlink="http://www.w3.org/1999/xlink" xmlns="http://www.w3.org/2000/svg">
  <defs>
    <linearGradient x1="-0.02136325" y1="0.28705904" x2="1.0446266" y2="0.7224382" id="gradient_1">
      <stop offset="0" stop-color="#F47938" />
      <stop offset="1" stop-color="#FFFB4D" />
    </linearGradient>
    <path d="M0 0L688.615 0L688.615 467.293L0 467.293L0 0Z" transform="translate(0.48102328 0.57754517)" id="path_1" />
    <path d="M0 608.734L905.433 608.734L905.433 0L0 0L0 608.734Z" transform="translate(0 0.6204839)" id="path_2" />
    <path d="M154.81 0C147.095 0 140.839 5.341 140.839 11.9305L140.839 11.9305C140.839 12.3236 140.839 12.5565 140.837 12.6787L140.837 12.6787C140.837 15.3607 140.832 26.3879 140.813 64.8434L140.813 64.8434C140.352 71.0796 134.285 76.0143 126.867 76.0143L126.867 76.0143L41.9147 76.0143C34.1964 76.0143 27.9432 70.6733 27.9432 64.0837L27.9432 64.0837L27.9432 11.9305C27.9432 5.341 21.6883 0 13.9716 0L13.9716 0C6.2549 0 0 5.341 0 11.9305L0 11.9305L0 95.3766C0 101.965 6.2549 107.306 13.9716 107.306L13.9716 107.306L228.514 107.306C236.231 107.306 242.486 101.965 242.486 95.3766L242.486 95.3766L242.486 11.9305C242.486 5.341 236.231 0 228.514 0L228.514 0L154.81 0ZM140.837 12.35C140.837 12.6506 140.837 12.9528 140.837 12.6787L140.837 12.6787C140.839 12.1089 140.839 11.9157 140.839 11.9157L140.839 11.9157C140.837 11.914 140.837 12.132 140.837 12.35L140.837 12.35Z" transform="translate(0.09838926 0.058621213)" id="path_3" />
    <path d="M0 0L491.642 0L491.642 471.614L0 471.614L0 0Z" transform="translate(0.00026111462 0.621546)" id="path_4" />
    <clipPath id="mask_1">
      <use xlink:href="#path_1" />
    </clipPath>
    <clipPath id="mask_2">
      <use xlink:href="#path_2" />
    </clipPath>
    <clipPath id="mask_3">
      <use xlink:href="#path_3" />
    </clipPath>
    <clipPath id="mask_4">
      <use xlink:href="#path_4" />
    </clipPath>
  </defs>
  <g id="Group-145">
    <g id="Group-65">
      <g id="Group-3" transform="translate(74.07441 141.48387)">
        <path d="M0 0L688.615 0L688.615 467.293L0 467.293L0 0Z" transform="translate(0.48102328 0.57754517)" id="Clip-2" fill="none" fill-rule="evenodd" stroke="none" />
        <g clip-path="url(#mask_1)">
          <path d="M366.115 0C366.115 0 -58.2131 7.5809 6.76823 202.878C71.7512 398.173 543.872 482.963 608.359 464.926C672.844 446.883 835.569 25.778 366.115 0" transform="translate(0.48102328 0.57754517)" id="Fill-1" fill="#FFD6D6" fill-rule="evenodd" stroke="none" />
        </g>
      </g>
      <path d="M374.262 259.226L5.72513 259.226C2.56297 259.226 0 256.665 0 253.505L0 5.72023C0 2.56152 2.56297 0 5.72513 0L374.262 0C377.422 0 379.987 2.56152 379.987 5.72023L379.987 253.505C379.987 256.665 377.422 259.226 374.262 259.226" transform="translate(405.70078 92.2331)" id="Fill-4" fill="#7796FE" fill-rule="evenodd" stroke="none" />
      <path d="M374.262 24.8354L5.72513 24.8354C2.56297 24.8354 0 22.2738 0 19.1135L0 5.72187C0 2.56316 2.56297 0 5.72513 0L374.262 0C377.422 0 379.987 2.56316 379.987 5.72187L379.987 19.1135C379.987 22.2738 377.422 24.8354 374.262 24.8354" transform="translate(405.70078 92.23212)" id="Fill-6" fill="#004D54" fill-rule="evenodd" stroke="none" />
      <path d="M0 608.734L905.433 608.734L905.433 0L0 0L0 608.734Z" transform="translate(0 0.6204839)" id="Clip-9" fill="none" fill-rule="evenodd" stroke="none" />
      <g clip-path="url(#mask_2)">
        <path d="M0 146.661L94.1371 146.661L94.1371 0L0 0L0 146.661Z" transform="translate(440.66867 142.06158)" id="Fill-8" fill="#A2B7FD" fill-rule="evenodd" stroke="none" />
        <path d="M0 8.24555L200.118 8.24555L200.118 0L0 0L0 8.24555Z" transform="translate(561.1597 142.06158)" id="Fill-10" fill="#698BFD" fill-rule="evenodd" stroke="none" />
        <path d="M0 9.537L200.118 9.537L200.118 0L0 0L0 9.537Z" transform="translate(561.1597 159.50522)" id="Fill-11" fill="#698BFD" fill-rule="evenodd" stroke="none" />
        <path d="M0 13.589L252.62 13.589L252.62 0L0 0L0 13.589Z" transform="translate(419.91632 99.187035)" id="Fill-12" fill="#FFFFFF" fill-rule="evenodd" stroke="none" />
        <path d="M0.819757 3.59303C0.819757 2.08935 1.9819 0.865355 3.40907 0.865355C4.83624 0.865355 5.99838 2.08935 5.99838 3.59303C5.99838 5.09671 4.83624 6.32071 3.40907 6.32071C1.9819 6.32071 0.819757 5.09671 0.819757 3.59303M7.48645 9.91045L5.47657 6.4441C6.28974 5.78768 6.81814 4.75616 6.81814 3.59303C6.81814 1.61061 5.29221 0 3.40907 0C1.52593 0 0 1.61061 0 3.59303C0 5.5771 1.52593 7.18606 3.40907 7.18606C3.87656 7.18606 4.32265 7.08571 4.72924 6.90639L6.14818 10.6195C6.16464 10.6574 6.18439 10.6985 6.20414 10.7363C6.42143 11.1081 6.88398 11.2266 7.23625 10.9995C7.5918 10.7709 7.70374 10.2823 7.48645 9.91045" transform="translate(661.72003 100.42403)" id="Fill-16" fill="#121841" fill-rule="evenodd" stroke="none" />
        <path d="M0 157.351L175.818 157.351L175.818 0L0 0L0 157.351Z" transform="translate(577.4133 182.86816)" id="Fill-18" fill="#E4EDFF" fill-rule="evenodd" stroke="none" />
        <path d="M0 66.5172L69.6283 66.5172L69.6283 0L0 0L0 66.5172Z" transform="translate(595.6949 207.90259)" id="Fill-19" fill="#FFFFFF" fill-rule="evenodd" stroke="none" />
        <path d="M0 7.15316L85.0901 7.15316L85.0901 0L0 0L0 7.15316Z" transform="translate(624.66125 190.73532)" id="Fill-21" fill="#F57408" fill-rule="evenodd" stroke="none" />
        <path d="M0 3.57658L72.7065 3.57658L72.7065 0L0 0L0 3.57658Z" transform="translate(677.5471 207.90259)" id="Fill-22" fill="#698BFD" fill-rule="evenodd" stroke="none" />
        <path d="M0 3.57658L72.7065 3.57658L72.7065 0L0 0L0 3.57658Z" transform="translate(677.5471 214.10155)" id="Fill-23" fill="#698BFD" fill-rule="evenodd" stroke="none" />
        <path d="M0 3.57658L72.7065 3.57658L72.7065 0L0 0L0 3.57658Z" transform="translate(677.5471 220.29887)" id="Fill-24" fill="#698BFD" fill-rule="evenodd" stroke="none" />
        <path d="M0 3.57658L72.7065 3.57658L72.7065 0L0 0L0 3.57658Z" transform="translate(677.5471 226.49783)" id="Fill-25" fill="#698BFD" fill-rule="evenodd" stroke="none" />
        <path d="M0 3.57494L72.7065 3.57494L72.7065 0L0 0L0 3.57494Z" transform="translate(677.5471 232.69846)" id="Fill-26" fill="#698BFD" fill-rule="evenodd" stroke="none" />
        <path d="M0 3.57658L72.7065 3.57658L72.7065 0L0 0L0 3.57658Z" transform="translate(677.5471 238.89577)" id="Fill-27" fill="#698BFD" fill-rule="evenodd" stroke="none" />
        <path d="M0 3.57658L72.7065 3.57658L72.7065 0L0 0L0 3.57658Z" transform="translate(677.5471 245.09474)" id="Fill-28" fill="#698BFD" fill-rule="evenodd" stroke="none" />
        <path d="M0 3.57494L72.7065 3.57494L72.7065 0L0 0L0 3.57494Z" transform="translate(677.5471 251.29372)" id="Fill-29" fill="#698BFD" fill-rule="evenodd" stroke="none" />
        <path d="M0 3.57658L72.7065 3.57658L72.7065 0L0 0L0 3.57658Z" transform="translate(677.5471 257.49268)" id="Fill-30" fill="#698BFD" fill-rule="evenodd" stroke="none" />
        <path d="M0 3.57658L72.7065 3.57658L72.7065 0L0 0L0 3.57658Z" transform="translate(677.5471 263.69)" id="Fill-31" fill="#698BFD" fill-rule="evenodd" stroke="none" />
        <path d="M0 3.57658L72.7065 3.57658L72.7065 0L0 0L0 3.57658Z" transform="translate(677.5471 269.88898)" id="Fill-32" fill="#698BFD" fill-rule="evenodd" stroke="none" />
        <path d="M374.26 259.226L5.72348 259.226C2.56133 259.226 0 256.663 0 253.503L0 5.72023C0 2.56152 2.56133 0 5.72348 0L374.26 0C377.422 0 379.985 2.56152 379.985 5.72023L379.985 253.503C379.985 256.663 377.422 259.226 374.26 259.226" transform="translate(525.448 264.79834)" id="Fill-33" fill="#D5DFFE" fill-rule="evenodd" stroke="none" />
        <path d="M374.26 24.8354L5.72348 24.8354C2.56133 24.8354 0 22.2722 0 19.1135L0 5.72187C0 2.56316 2.56133 0 5.72348 0L374.26 0C377.422 0 379.985 2.56316 379.985 5.72187L379.985 19.1135C379.985 22.2722 377.422 24.8354 374.26 24.8354" transform="translate(525.448 264.79736)" id="Fill-34" fill="#004D54" fill-rule="evenodd" stroke="none" />
        <path d="M0 146.661L94.1371 146.661L94.1371 0L0 0L0 146.661Z" transform="translate(560.4157 314.62747)" id="Fill-35" fill="#698BFD" fill-rule="evenodd" stroke="none" />
        <path d="M0 13.589L252.622 13.589L252.622 0L0 0L0 13.589Z" transform="translate(539.6617 271.75293)" id="Fill-38" fill="#FFFFFF" fill-rule="evenodd" stroke="none" />
        <path d="M332.395 17.975C332.395 27.9019 257.986 35.9501 166.198 35.9501C74.4086 35.9501 0 27.9019 0 17.975C0 8.04813 74.4086 0 166.198 0C257.986 0 332.395 8.04813 332.395 17.975" transform="translate(163.13177 553.4092)" id="Fill-59" fill="#2846A6" fill-rule="evenodd" stroke="none" />
        <path d="M0 113.514L6.59427 113.514L32.8495 0.503419L23.2923 0L0 113.514Z" transform="translate(355.7547 459.24506)" id="Fill-60" fill="#1F1A15" fill-rule="evenodd" stroke="none" />
        <path d="M32.8495 113.514L26.2553 113.514L0 0.501774L9.55889 0L32.8495 113.514Z" transform="translate(429.89676 461.28375)" id="Fill-61" fill="#1F1A15" fill-rule="evenodd" stroke="none" />
        <path d="M32.8495 113.514L26.2569 113.514L0 0.501774L9.55889 0L32.8495 113.514Z" transform="translate(253.42749 449.08652)" id="Fill-62" fill="#1F1A15" fill-rule="evenodd" stroke="none" />
        <path d="M0 113.516L6.59427 113.516L32.8495 0.501774L23.2906 0L0 113.516Z" transform="translate(198.68254 456.75955)" id="Fill-63" fill="#1F1A15" fill-rule="evenodd" stroke="none" />
        <path d="M0 11.8863L0 95.0097C0 101.574 6.26176 106.894 13.9869 106.894L228.766 106.894C236.49 106.894 242.753 101.574 242.753 95.0097L242.753 11.8863C242.753 5.3221 236.49 0 228.766 0L13.9869 0C6.26176 0 0 5.3221 0 11.8863" transform="translate(203.56949 360.34338)" id="Fill-64" fill="#450000" fill-rule="evenodd" stroke="none" />
      </g>
    </g>
    <g id="Group-68" transform="translate(204 360)">
      <path d="M154.81 0C147.095 0 140.839 5.341 140.839 11.9305L140.839 11.9305C140.839 12.3236 140.839 12.5565 140.837 12.6787L140.837 12.6787C140.837 15.3607 140.832 26.3879 140.813 64.8434L140.813 64.8434C140.352 71.0796 134.285 76.0143 126.867 76.0143L126.867 76.0143L41.9147 76.0143C34.1964 76.0143 27.9432 70.6733 27.9432 64.0837L27.9432 64.0837L27.9432 11.9305C27.9432 5.341 21.6883 0 13.9716 0L13.9716 0C6.2549 0 0 5.341 0 11.9305L0 11.9305L0 95.3766C0 101.965 6.2549 107.306 13.9716 107.306L13.9716 107.306L228.514 107.306C236.231 107.306 242.486 101.965 242.486 95.3766L242.486 95.3766L242.486 11.9305C242.486 5.341 236.231 0 228.514 0L228.514 0L154.81 0ZM140.837 12.35C140.837 12.6506 140.837 12.9528 140.837 12.6787L140.837 12.6787C140.839 12.1089 140.839 11.9157 140.839 11.9157L140.839 11.9157C140.837 11.914 140.837 12.132 140.837 12.35L140.837 12.35Z" transform="translate(0.09838926 0.058621213)" id="Clip-67" fill="none" fill-rule="evenodd" stroke="none" />
      <g clip-path="url(#mask_3)">
        <path d="M154.81 0C147.095 0 140.839 5.341 140.839 11.9305L140.839 11.9305C140.839 12.3236 140.839 12.5565 140.837 12.6787L140.837 12.6787C140.837 15.3607 140.832 26.3879 140.813 64.8434L140.813 64.8434C140.352 71.0796 134.285 76.0143 126.867 76.0143L126.867 76.0143L41.9147 76.0143C34.1964 76.0143 27.9432 70.6733 27.9432 64.0837L27.9432 64.0837L27.9432 11.9305C27.9432 5.341 21.6883 0 13.9716 0L13.9716 0C6.2549 0 0 5.341 0 11.9305L0 11.9305L0 95.3766C0 101.965 6.2549 107.306 13.9716 107.306L13.9716 107.306L228.514 107.306C236.231 107.306 242.486 101.965 242.486 95.3766L242.486 95.3766L242.486 11.9305C242.486 5.341 236.231 0 228.514 0L228.514 0L154.81 0ZM140.837 12.35C140.837 12.6506 140.837 12.9528 140.837 12.6787L140.837 12.6787C140.839 12.1089 140.839 11.9157 140.839 11.9157L140.839 11.9157C140.837 11.914 140.837 12.132 140.837 12.35L140.837 12.35Z" transform="translate(0.09838926 0.058621213)" id="Fill-66" fill="url(#gradient_1)" fill-rule="evenodd" stroke="none" />
      </g>
    </g>
    <g id="Group-144">
      <path d="M0.822802 0.82065L0.822802 0.825589L0.822802 0.82065Z" transform="translate(343.6371 372.25174)" id="Fill-69" fill="#FABF44" fill-rule="evenodd" stroke="none" />
      <path d="M0.822802 0.822297L0.822802 0.823943L0.822802 0.822297Z" transform="translate(343.6371 372.48007)" id="Fill-71" fill="#FABF44" fill-rule="evenodd" stroke="none" />
      <path d="M13.9547 64.6379C13.9745 26.6855 13.9811 15.5339 13.9827 12.7205L13.9827 12.7221L13.9827 12.7205L13.9827 12.6843L13.9827 12.5131L13.9827 12.4834L13.9827 12.4917L13.9827 12.4719L13.9827 12.4604L13.9827 12.2694L13.9827 12.2645L13.9827 12.2678L13.9827 12.2019L13.9827 12.0324L13.9827 12.0258L13.9827 11.955L13.9827 11.8941C13.9827 5.32559 20.2426 0 27.9654 0L101.728 0C109.451 0 115.711 5.32559 115.711 11.8941L115.711 95.072C115.711 101.64 109.451 106.964 101.728 106.964L0.738876 106.964L0 75.7731C7.42332 75.7731 13.4956 70.8525 13.9547 64.6379" transform="translate(330.47784 360.58038)" id="Fill-73" fill="#FABF44" fill-rule="evenodd" stroke="none" />
      <path d="M13.9827 106.964L56.1678 106.964C63.8906 106.964 70.1505 101.64 70.1505 95.072L70.1505 11.8941C70.1505 5.32559 63.8906 0 56.1678 0L13.9827 0C6.26152 0 0 5.32559 0 11.8941L0 95.072C0 101.64 6.26152 106.964 13.9827 106.964" transform="translate(376.0382 360.58023)" id="Fill-75" fill="#F15A24" fill-rule="evenodd" stroke="none" />
      <path d="M35.8143 0.421887C35.8143 0.421887 13.2037 -3.4369 5.29653 12.1859C-2.61225 27.8087 -1.86514 63.137 8.89711 72.2835C19.661 81.4317 17.8706 104.866 27.2983 111.783C36.7276 118.704 60.755 121.829 60.755 105.538C60.755 105.538 49.0449 107.521 46.0795 97.3788C46.0795 97.3788 62.8844 105.258 71.096 93.2336C79.3076 81.2094 61.6667 80.0933 61.6667 80.0933C61.6667 80.0933 68.598 83.4977 58.257 81.7115C47.916 79.927 54.6663 77.3457 54.6663 68.5993C54.6663 59.8544 61.0595 66.0344 59.2329 49.9671C57.4095 33.8982 43.5206 -0.13125 35.8143 0.421887" transform="translate(289.45755 204.0461)" id="Fill-77" fill="#0E1B29" fill-rule="evenodd" stroke="none" />
      <path d="M6.27634 1.35979L4.08274 16.6748C4.08274 16.6748 0 28.2445 0 29.9451C0 31.0711 1.92042 40.1995 7.03002 41.7388C9.64818 42.529 20.3759 30.8193 21.801 25.5233C23.468 19.3334 19.3902 0 19.3902 0L6.27634 1.35979Z" transform="translate(264.41177 547.96954)" id="Fill-79" fill="#FC7575" fill-rule="evenodd" stroke="none" />
      <path d="M2.96004 0C2.96004 0 0.0489688 22.4613 0.0489688 25.8624C0.0489688 29.2652 -0.413446 34.1529 1.50368 36.0708C3.42246 37.9903 20.6486 32.3289 20.6486 26.2032C20.6486 20.0775 16.9065 0 16.9065 0L2.96004 0Z" transform="translate(302.9527 546.6076)" id="Fill-81" fill="#FC7575" fill-rule="evenodd" stroke="none" />
      <path d="M70.5208 71.7875C70.5208 56.4528 69.8856 6.57175 69.8856 6.57175C69.8856 6.57175 60.8216 0.426335 42.6755 0.426335C36.8402 0.426335 31.4756 -0.571286 25.6666 0.4856C13.4118 2.71625 2.26938 7.96117 2.26938 7.96117C2.26938 7.96117 6.02959 55.0206 0.151488 87.1502C-0.886889 92.8265 3.54802 98.0352 9.31586 98.0352L66.6471 98.0352C70.5142 98.0352 73.4533 94.5583 72.8197 90.7423C71.4703 82.5984 70.5208 75.7698 70.5208 71.7875" transform="translate(272.60678 273.99976)" id="Fill-83" fill="#FFDA88" fill-rule="evenodd" stroke="none" />
      <path d="M27.8522 0C18.5546 7.20394 16.57 9.68483 13.9239 12.9312C-6.72519 38.2849 -0.781268 72.7128 8.60526 71.4188C17.9901 70.1265 37.3885 66.7665 52.4047 69.8944C67.4225 73.0255 101.213 72.0872 104.342 59.8803C106.425 51.7512 95.3154 23.4556 89.3041 0.994329L27.8522 0Z" transform="translate(250.70233 371.04025)" id="Fill-85" fill="#464A7F" fill-rule="evenodd" stroke="none" />
      <path d="M40.8061 0L33.781 11.0331C30.3252 18.9449 32.3411 37.8899 32.3411 37.8899L1.46788 36.3243L0 7.22535L40.8061 0Z" transform="translate(269.21988 402.75128)" id="Fill-87" fill="#35385F" fill-rule="evenodd" stroke="none" />
      <path d="M6.27782 0.248418C6.27782 0.248418 23.7969 -1.62994 30.3678 4.94349C36.9387 11.5153 24.4239 101.03 25.9889 106.037C27.5522 111.045 35.0611 110.42 30.6805 114.8C26.2999 119.183 25.2056 122.156 27.2395 124.19C29.2735 126.224 30.0552 129.198 28.1775 131.077C26.2999 132.953 25.6746 137.961 25.6746 137.961L4.70462 137.961C4.70462 137.961 3.14953 125.129 3.14953 122.938C3.14953 120.747 0.646561 114.489 0.646561 114.489C0.646561 114.489 8.45495 110.415 4.70462 106.663C0.954289 102.911 4.70462 97.2745 4.70462 89.1355C4.70462 80.9981 -6.86233 1.81235 6.27782 0.248418" transform="translate(298.395 412.83203)" id="Fill-89" fill="#6B6E98" fill-rule="evenodd" stroke="none" />
      <path d="M0.857079 4.8367C6.91949 -1.22805 16.7174 -1.98532 26.4166 4.8367C36.1158 11.6587 32.6732 28.559 32.6732 43.8954C32.6732 59.2318 31.6694 97.1035 33.2656 101.797C34.8635 106.494 39.8694 111.189 37.9918 116.197C36.1158 121.204 35.1745 120.159 38.4065 123.394C41.6417 126.629 39.8694 129.027 39.8694 132.47C39.8694 135.914 38.3045 146.555 38.3045 146.555L18.2824 146.555C18.2824 146.555 17.3427 127.462 12.3385 119.952C7.33253 112.438 11.0862 96.1651 11.0862 93.6612C11.0862 91.1573 4.82792 88.0261 4.82792 77.0721C4.82792 66.118 -2.43742 8.13083 0.857079 4.8367" transform="translate(250.72424 407.99466)" id="Fill-91" fill="#6B6E98" fill-rule="evenodd" stroke="none" />
      <path d="M10.1564 0C10.1564 0 6.59529 6.23102 1.58936 20.3146C-3.41657 34.3998 5.00234 90.2156 5.00234 99.6041C5.00234 108.993 16.7733 120.791 16.7733 120.791L26.7836 109.523L20.2143 68.8359L10.1564 0Z" transform="translate(265.68625 281.9601)" id="Fill-93" fill="#FD5E5A" fill-rule="evenodd" stroke="none" />
      <path d="M15.2942 0C15.2942 0 29.7246 3.55917 34.1282 23.5906C38.5318 43.6204 42.1094 90.5695 40.7336 96.2029C39.3579 101.836 3.06576 119.257 3.06576 119.257L0 113.103C0 113.103 27.5227 89.3167 27.5227 85.8744C27.5227 82.4305 15.7435 39.3451 15.7435 39.3451L15.2942 0Z" transform="translate(327.19864 280.57117)" id="Fill-95" fill="#FD5E5A" fill-rule="evenodd" stroke="none" />
      <path d="M0 3.75013L8.13422 61.5035L109.502 57.8982L107.496 0L0 3.75013Z" transform="translate(231.46199 348.2973)" id="Fill-97" fill="#241145" fill-rule="evenodd" stroke="none" />
      <path d="M21.2349 0C11.7858 5.98573 4.75744 5.35686 0 3.07353C0.125066 4.65886 2.08334 13.2391 7.02344 14.7289C9.41779 15.4516 18.592 5.72233 21.2349 0" transform="translate(264.41867 574.97955)" id="Fill-99" fill="#ED1E79" fill-rule="evenodd" stroke="none" />
      <path d="M20.6486 5.7783C20.6486 4.41686 20.4643 2.36729 20.1763 0C14.7244 4.90415 7.44426 8.13407 0.402717 0.933418C0.187143 3.05213 0.0489122 4.69837 0.0489122 5.43753C0.0489122 8.84031 -0.413503 13.728 1.50527 15.6459C3.4224 17.5654 20.6486 11.904 20.6486 5.7783" transform="translate(302.95193 567.0325)" id="Fill-101" fill="#ED1E79" fill-rule="evenodd" stroke="none" />
      <path d="M26.3182 9.40167C26.3182 9.40167 25.5316 11.1319 24.3368 13.8416C20.1998 23.2317 22.8311 37.633 23.0401 40.1386C23.4581 45.1679 20.7708 55.4585 20.7708 55.4585C20.7708 55.4585 1.11243 41.6992 0 32.6647L10.6602 0L26.3182 9.40167Z" transform="translate(299.23984 241.82166)" id="Fill-103" fill="#FC7575" fill-rule="evenodd" stroke="none" />
      <path d="M2.07511 0L17.733 9.40167C17.733 9.40167 16.9448 11.1368 15.7517 13.8399C10.2406 12.3205 1.82662 9.5416 0 6.35284L2.07511 0Z" transform="translate(307.82544 241.82182)" id="Fill-105" fill="#FD5E5A" fill-rule="evenodd" stroke="none" />
      <path d="M0 10.722L23.6473 23.7766C23.6473 23.7766 28.5545 23.8886 28.5545 18.4214C28.5545 12.9526 22.5316 7.5974 16.3968 4.47283C10.262 1.34992 2.56714 0 2.56714 0L0 10.722Z" transform="translate(313.6876 204.45943)" id="Fill-107" fill="#0E1B29" fill-rule="evenodd" stroke="none" />
      <path d="M15.9685 0C15.9685 0 25.1147 1.56228 27.5683 5.91494C30.0219 10.266 30.6917 20.6438 33.1453 23.0984C35.6005 25.5529 37.7382 26.0929 37.7382 26.0929C37.7382 26.0929 38.3882 27.2272 35.9346 28.4536C33.481 29.6817 35.3389 31.0217 36.8627 31.0217C38.3882 31.0217 37.1062 33.9224 35.9346 34.2582C35.9346 34.2582 37.4403 34.7027 37.1606 36.1547C36.8824 37.6051 36.1584 37.8849 36.1584 37.8849C36.1584 37.8849 36.0827 39.7814 36.8627 41.5659C37.6444 43.3504 35.7503 48.6513 23.7769 46.3087C23.7769 46.3087 5.98293 42.124 4.92316 37.103C3.86668 32.0803 -4.05197 13.8301 2.69501 7.08212C9.44034 0.33254 15.9685 0 15.9685 0" transform="translate(306.30786 209.26677)" id="Fill-109" fill="#FC7575" fill-rule="evenodd" stroke="none" />
      <path d="M0.993641 1.21201C0.993641 1.21201 3.22344 -1.69196 14.379 1.49022C25.5329 4.67075 28.7583 17.2925 28.7583 17.2925C28.7583 17.2925 21.5736 12.4328 17.0564 12.4328C12.5392 12.4328 2.32 10.7174 0.659584 9.05963C-0.999186 7.39857 0.993641 1.21201 0.993641 1.21201" transform="translate(313.02734 202.9697)" id="Fill-111" fill="#1B3753" fill-rule="evenodd" stroke="none" />
      <path d="M22.6747 0C24.2347 0 33.2461 11.2339 30.5703 19.6034C27.8929 27.9713 21.536 24.2343 17.519 26.4649C13.5021 28.6972 18.2974 39.0192 17.5733 43.2039C16.8493 47.387 5.58182 71.32 5.58182 71.32C5.58182 71.32 -3.89686 20.7245 1.84959 11.3508C7.59604 1.97713 22.6747 0 22.6747 0" transform="translate(293.65802 203.16563)" id="Fill-113" fill="#1B3753" fill-rule="evenodd" stroke="none" />
      <path d="M0 2.26358C0 3.51308 2.0965 4.52551 4.68174 4.52551C7.26863 4.52551 9.36349 3.51308 9.36349 2.26358C9.36349 1.01408 7.26863 0 4.68174 0C2.0965 0 0 1.01408 0 2.26358" transform="translate(327.33853 235.82045)" id="Fill-115" fill="#FD5E5A" fill-rule="evenodd" stroke="none" />
      <path d="M7.79852 0C7.79852 0 6.25988 3.08999 0 2.94677L7.79852 0Z" transform="translate(330.79413 228.23557)" id="Fill-117" fill="#1B3753" fill-rule="evenodd" stroke="none" />
      <path d="M7.59446 1.38943C7.59446 1.38943 5.27087 0 3.46729 0C1.66371 0 0 0.73093 0 1.38943C0 1.38943 1.97637 0.452716 3.5364 0.694713C5.09644 0.938357 5.82544 2.13847 6.45077 2.13847C7.07445 2.13847 7.59446 1.38943 7.59446 1.38943" transform="translate(329.10822 225.33488)" id="Fill-119" fill="#1B3753" fill-rule="evenodd" stroke="none" />
      <path d="M53.5525 23.4853C53.5525 23.4853 62.2264 43.5924 44.8077 66.0554C27.389 88.5216 3.75318 79.4278 0.572227 70.3339C-2.61037 61.2401 8.5205 58.1304 8.5205 58.1304C8.5205 58.1304 6.39767 68.4194 12.0536 67.9321C17.7112 67.4448 19.6612 66.1113 17.3887 55.0354C15.1161 43.9612 23.3342 48.4011 27.8563 41.1478C32.3768 33.8961 27.8563 28.3598 27.8563 19.7911C27.8563 11.2224 38.3421 0 38.3421 0L53.5525 23.4853Z" transform="translate(257.1661 214.51515)" id="Fill-121" fill="#1B3753" fill-rule="evenodd" stroke="none" />
      <path d="M5.84038 5.73513C5.84038 5.73513 2.6117 -1.29596 1.10597 0.211994C-0.399756 1.7183 -1.1518 12.0946 4.16021 13.1004C9.47223 14.103 5.84038 5.73513 5.84038 5.73513" transform="translate(306.55838 224.90065)" id="Fill-123" fill="#FC7575" fill-rule="evenodd" stroke="none" />
      <path d="M2.91917 3.06662C2.91917 3.06662 1.25546 -0.765822 0.352024 0.137964C-0.548122 1.0401 0.422785 7.07686 1.6356 7.07686C2.85005 7.07686 3.21373 4.99766 2.91917 3.06662" transform="translate(309.24655 228.42603)" id="Fill-125" fill="#FD5E5A" fill-rule="evenodd" stroke="none" />
      <path d="M1.56168 1.30218C1.56168 2.01994 1.23091 2.60106 0.822802 2.60106C0.414692 2.60106 0.0839258 2.01994 0.0839258 1.30218C0.0839258 0.582769 0.414692 0 0.822802 0C1.23091 0 1.56168 0.582769 1.56168 1.30218" transform="translate(335.3773 230.11327)" id="Fill-127" fill="#1B3753" fill-rule="evenodd" stroke="none" />
      <path d="M6.02291 0L79.2474 0C82.5731 0 85.2703 4.00365 85.2703 8.93908L85.2703 29.7344C85.2703 34.6715 82.5731 38.6735 79.2474 38.6735L75.9315 38.6735L85.2703 66.9838L56.0575 38.6735L6.02291 38.6735C2.69715 38.6735 0 34.6715 0 29.7344L0 8.93908C0 4.00365 2.69715 0 6.02291 0" transform="translate(168.08237 278.18216)" id="Fill-129" fill="#5CA9FF" fill-rule="evenodd" stroke="none" />
      <path d="M9.94294 10.0631C9.42292 10.0631 8.89469 9.91825 8.42569 9.61534C6.12513 8.13208 3.74559 6.65211 1.35946 5.2133C0.0314607 4.41158 -0.396396 2.68961 0.401722 1.3611C1.19984 0.0309366 2.92443 -0.397086 4.25244 0.402987C6.68958 1.86979 9.11849 3.38103 11.4651 4.89557C12.7684 5.73516 13.1436 7.47359 12.3044 8.77576C11.7663 9.6104 10.8645 10.0631 9.94294 10.0631" transform="translate(507.02087 54.058002)" id="Fill-131" fill="#99D7FF" fill-rule="evenodd" stroke="none" />
      <g id="Group-135">
        <path d="M0 0L491.642 0L491.642 471.614L0 471.614L0 0Z" transform="translate(0.00026111462 0.621546)" id="Clip-134" fill="none" fill-rule="evenodd" stroke="none" />
        <g clip-path="url(#mask_4)">
          <path d="M292.225 5.79476L292.161 5.79476C286.79 5.67623 281.535 5.61532 276.541 5.61532L275.648 5.61532C274.099 5.61532 272.842 4.3576 272.842 2.80848C272.842 1.25773 274.099 0 275.648 0L276.541 0C281.577 0 286.875 0.0609109 292.286 0.17944C293.835 0.214011 295.062 1.49972 295.029 3.04884C294.995 4.57819 293.746 5.79476 292.225 5.79476M235.152 7.15291C233.704 7.15291 232.475 6.04005 232.36 4.57161C232.235 3.02414 233.388 1.67258 234.932 1.54911C240.302 1.11944 245.903 0.773733 251.582 0.523504C253.101 0.439546 254.441 1.65612 254.51 3.20687C254.577 4.75434 253.378 6.06475 251.827 6.13389C246.216 6.37753 240.682 6.71995 235.381 7.14468C235.304 7.14962 235.227 7.15291 235.152 7.15291M332.704 7.79659C332.627 7.79659 332.551 7.79165 332.475 7.78671C327.074 7.35211 321.532 6.98006 315.999 6.67879C314.451 6.59319 313.266 5.27291 313.35 3.72215C313.434 2.17468 314.719 1.02561 316.305 1.0717C321.884 1.37626 327.476 1.7516 332.924 2.19114C334.47 2.31461 335.622 3.66618 335.497 5.21199C335.38 6.68209 334.15 7.79659 332.704 7.79659M372.954 12.4538C372.811 12.4538 372.667 12.4423 372.524 12.4192C367.156 11.5978 361.658 10.8405 356.185 10.1754C354.646 9.98938 353.552 8.59008 353.738 7.05084C353.927 5.50996 355.334 4.43332 356.865 4.60289C362.394 5.27784 367.949 6.03841 373.375 6.87305C374.907 7.10682 375.959 8.53904 375.723 10.0733C375.511 11.4595 374.315 12.4538 372.954 12.4538M195 12.5328C193.687 12.5328 192.513 11.6027 192.25 10.2627C191.954 8.74153 192.946 7.26815 194.468 6.97018C199.805 5.92811 205.352 4.99304 210.957 4.19133C212.478 3.97896 213.911 5.04079 214.132 6.57508C214.349 8.10938 213.284 9.53337 211.75 9.75068C206.241 10.5359 200.787 11.4545 195.543 12.4818C195.36 12.5164 195.181 12.5328 195 12.5328M412.7 20.2652C412.481 20.2652 412.261 20.2389 412.037 20.1862C406.801 18.9153 401.39 17.7086 395.959 16.5974C394.44 16.2879 393.46 14.8063 393.771 13.2884C394.08 11.7673 395.561 10.7862 397.08 11.0989C402.58 12.22 408.056 13.4432 413.36 14.7289C414.867 15.0944 415.792 16.6122 415.427 18.1185C415.114 19.4042 413.967 20.2652 412.7 20.2652M155.941 23.1494C154.789 23.1494 153.71 22.435 153.3 21.2908C152.777 19.829 153.535 18.2239 154.992 17.6987C160.143 15.85 165.512 14.128 170.951 12.5773C172.44 12.1542 173.994 13.0168 174.418 14.5083C174.843 15.9982 173.979 17.5539 172.488 17.9753C167.171 19.4931 161.921 21.1789 156.889 22.9848C156.575 23.0951 156.256 23.1494 155.941 23.1494M451.533 31.7708C451.222 31.7708 450.904 31.7197 450.595 31.6111C445.49 29.7986 440.236 28.0667 434.972 26.4584C433.491 26.004 432.655 24.4368 433.109 22.9535C433.561 21.4703 435.128 20.6323 436.612 21.0883C441.952 22.7214 447.289 24.4796 452.469 26.3184C453.931 26.837 454.694 28.4421 454.179 29.9023C453.768 31.053 452.687 31.7708 451.533 31.7708M119.274 40.2275C118.313 40.2275 117.378 39.7336 116.853 38.843C116.068 37.5096 116.513 35.7892 117.849 35.0007C122.61 32.1972 127.589 29.5302 132.651 27.0724C134.048 26.3991 135.725 26.9786 136.403 28.3713C137.078 29.7689 136.497 31.4481 135.103 32.1231C130.174 34.5151 125.328 37.1112 120.694 39.8406C120.248 40.104 119.758 40.2275 119.274 40.2275M488.834 47.5352C488.413 47.5352 487.988 47.443 487.587 47.2421C482.757 44.8386 477.744 42.5059 472.692 40.3082C471.272 39.6892 470.62 38.0364 471.237 36.6157C471.856 35.1917 473.51 34.5414 474.929 35.1587C480.073 37.3943 485.171 39.7699 490.085 42.2162C491.473 42.9076 492.038 44.5917 491.347 45.9778C490.858 46.9656 489.864 47.5352 488.834 47.5352M86.6894 64.1852C85.9258 64.1852 85.1639 63.8741 84.6093 63.2633C83.5693 62.1159 83.6565 60.3413 84.8051 59.2992C88.9455 55.5408 93.2899 51.9207 97.7133 48.5394C98.9475 47.5994 100.705 47.8331 101.648 49.0645C102.589 50.2959 102.354 52.059 101.121 52.999C96.8213 56.2866 92.6004 59.8046 88.5752 63.4576C88.0371 63.9432 87.3641 64.1852 86.6894 64.1852M59.0909 93.8143C58.4788 93.8143 57.8617 93.6151 57.3466 93.2051C56.1338 92.2388 55.933 90.4724 56.8973 89.2591C60.363 84.9015 64.0096 80.6015 67.7386 76.481C68.7786 75.327 70.5559 75.2463 71.7045 76.2834C72.8531 77.3239 72.9403 79.1002 71.9003 80.2509C68.2504 84.2842 64.681 88.4903 61.2895 92.7541C60.7349 93.4521 59.917 93.8143 59.0909 93.8143M36.3832 127.342C35.9109 127.342 35.4337 127.223 34.9943 126.971C33.6482 126.204 33.1792 124.49 33.9477 123.142C36.6975 118.32 39.6432 113.515 42.7023 108.856C43.5548 107.56 45.2975 107.203 46.5893 108.051C47.8827 108.902 48.2447 110.644 47.394 111.941C44.3973 116.498 41.5142 121.203 38.822 125.926C38.3053 126.833 37.3574 127.342 36.3832 127.342M19.1011 163.957C18.7687 163.957 18.4313 163.9 18.1022 163.776C16.6541 163.225 15.9267 161.603 16.478 160.154C18.4478 154.964 20.62 149.762 22.9288 144.686C23.5722 143.277 25.2326 142.655 26.6478 143.295C28.0581 143.939 28.6785 145.602 28.0367 147.016C25.7773 151.981 23.6528 157.073 21.7242 162.15C21.298 163.269 20.2316 163.957 19.1011 163.957M7.75465 202.828C7.5654 202.828 7.37616 202.808 7.18362 202.769C5.66638 202.455 4.69053 200.97 5.0032 199.452C6.1255 194.034 7.44857 188.552 8.94113 183.159C9.35418 181.661 10.8994 180.79 12.392 181.202C13.8862 181.615 14.7633 183.161 14.3486 184.654C12.8906 189.928 11.5955 195.29 10.4995 200.589C10.2247 201.916 9.05797 202.828 7.75465 202.828M2.80796 243.006C2.77176 243.006 2.73391 243.006 2.69771 243.005C1.14755 242.944 -0.0586801 241.638 0.00220729 240.089C0.219427 234.55 0.635765 228.926 1.23641 223.367C1.40262 221.826 2.78822 220.713 4.3285 220.878C5.87043 221.046 6.98286 222.43 6.81665 223.971C6.22917 229.402 5.82271 234.9 5.61043 240.308C5.54954 241.819 4.30711 243.006 2.80796 243.006M4.62142 283.454C3.23417 283.454 2.02795 282.426 1.84364 281.013C1.67743 279.741 1.5211 278.47 1.37464 277.189C0.884251 272.93 0.504117 268.597 0.247402 264.31C0.153603 262.765 1.33186 261.434 2.87872 261.341C4.40914 261.257 5.75524 262.427 5.84904 263.973C6.09917 268.158 6.47108 272.388 6.94995 276.552C7.09147 277.801 7.24616 279.043 7.40743 280.281C7.60819 281.821 6.52703 283.229 4.99168 283.43C4.86661 283.448 4.74484 283.454 4.62142 283.454M13.4863 322.948C12.3015 322.948 11.1989 322.192 10.8155 321.004C9.10734 315.698 7.57857 310.26 6.26867 304.836C5.90499 303.329 6.83147 301.812 8.33719 301.449C9.84786 301.089 11.3602 302.013 11.7238 303.519C13.0008 308.805 14.4934 314.109 16.1571 319.282C16.6327 320.757 15.8214 322.337 14.3469 322.813C14.0606 322.905 13.7726 322.948 13.4863 322.948M29.3252 360.202C28.3247 360.202 27.3554 359.664 26.8502 358.721C24.214 353.797 21.7308 348.726 19.473 343.649C18.8427 342.232 19.4779 340.571 20.8948 339.942C22.3084 339.308 23.9704 339.947 24.5991 341.364C26.8042 346.318 29.2249 351.265 31.7969 356.068C32.5292 357.438 32.0142 359.139 30.6483 359.87C30.227 360.097 29.7728 360.202 29.3252 360.202M51.373 394.144C50.5338 394.144 49.7028 393.772 49.1515 393.055C45.722 388.618 42.4226 384.046 39.3453 379.466C38.4797 378.181 38.822 376.437 40.1072 375.57C41.3925 374.709 43.1368 375.048 44.0024 376.334C47.0122 380.811 50.2376 385.283 53.5897 389.622C54.5392 390.849 54.3137 392.613 53.0861 393.56C52.576 393.953 51.9704 394.144 51.373 394.144M78.4613 424.218C77.7603 424.218 77.0626 423.959 76.5162 423.436C72.4812 419.559 68.5367 415.542 64.7913 411.501C63.7381 410.363 63.8056 408.588 64.9427 407.535C66.0749 406.481 67.8538 406.544 68.9053 407.685C72.5799 411.645 76.4471 415.585 80.4048 419.386C81.5222 420.461 81.5567 422.237 80.4854 423.355C79.9342 423.93 79.1969 424.218 78.4613 424.218M109.412 450.314C108.831 450.314 108.245 450.133 107.742 449.761C103.236 446.416 98.8026 442.957 94.5718 439.477C93.3738 438.492 93.2027 436.723 94.1851 435.526C95.1692 434.327 96.9365 434.153 98.1345 435.139C102.295 438.56 106.652 441.963 111.085 445.25C112.33 446.175 112.591 447.934 111.668 449.178C111.117 449.919 110.271 450.314 109.412 450.314M143.923 471.615C143.473 471.615 143.015 471.508 142.592 471.279C136.564 468.023 131.647 465.319 127.976 463.242C126.627 462.478 126.153 460.766 126.915 459.418C127.681 458.065 129.394 457.595 130.739 458.356C134.379 460.414 139.263 463.1 145.258 466.337C146.622 467.073 147.132 468.777 146.395 470.141C145.888 471.081 144.921 471.615 143.923 471.615" transform="translate(0.00026111462 0.6212167)" id="Fill-133" fill="#99D7FF" fill-rule="evenodd" stroke="none" />
        </g>
      </g>
      <path d="M102.924 50.1049L20.2442 0L0 20.657L102.924 50.1049Z" transform="translate(495.55402 38.370644)" id="Fill-136" fill="#0A4CFE" fill-rule="evenodd" stroke="none" />
      <path d="M0 38.7722L1.18154 0L82.6933 27.163L0 38.7722Z" transform="translate(515.7851 61.31214)" id="Fill-138" fill="#99D7FF" fill-rule="evenodd" stroke="none" />
      <path d="M0 0L82.7805 82.1967L0.100382 32.0918L0 0Z" transform="translate(515.69836 6.279342)" id="Fill-140" fill="#99D7FF" fill-rule="evenodd" stroke="none" />
      <path d="M0 0L21.4126 2.28498L21.2415 7.91512L0 0Z" transform="translate(495.55417 59.02815)" id="Fill-142" fill="#0033BF" fill-rule="evenodd" stroke="none" />
    </g>
  </g>
</svg>