<?xml version="1.0" encoding="utf-8"?>
<svg width="709px" height="526px" viewbox="0 0 709 526" version="1.1" xmlns:xlink="http://www.w3.org/1999/xlink" xmlns="http://www.w3.org/2000/svg">
  <path d="M82 96.165L685.969 3.53232Q686.501 3.45067 687.037 3.3978Q687.573 3.34492 688.111 3.32096Q688.649 3.29701 689.188 3.30204Q689.726 3.30707 690.264 3.34107Q690.801 3.37508 691.336 3.43796Q691.871 3.50084 692.402 3.59241Q692.932 3.68399 693.457 3.80399Q693.982 3.92399 694.5 4.07207Q695.018 4.22015 695.527 4.39588Q696.036 4.57162 696.535 4.77449Q697.034 4.97736 697.521 5.20679Q698.008 5.43622 698.482 5.69153Q698.957 5.94685 699.416 6.22731Q699.876 6.50777 700.32 6.81257Q700.764 7.11737 701.191 7.44562Q701.618 7.77387 702.026 8.12462Q702.435 8.47538 702.824 8.84761Q703.214 9.21985 703.582 9.61249Q703.951 10.0051 704.298 10.417Q704.645 10.8289 704.969 11.2589Q705.293 11.6889 705.594 12.1357Q705.894 12.5825 706.171 13.0449Q706.447 13.5072 706.698 13.9837Q706.948 14.4603 707.173 14.9496Q707.398 15.439 707.596 15.9397Q707.795 16.4404 707.966 16.9511Q708.137 17.4618 708.28 17.9809Q708.423 18.5 708.538 19.0261Q708.653 19.5522 708.74 20.0838Q708.826 20.6153 708.884 21.1507Q708.942 21.6861 708.971 22.2239Q709 22.7616 709 23.3002L709 506.001Q709 506.492 708.976 506.982Q708.952 507.473 708.904 507.961Q708.856 508.45 708.784 508.935Q708.711 509.421 708.616 509.903Q708.52 510.384 708.401 510.86Q708.281 511.337 708.139 511.806Q707.996 512.276 707.831 512.738Q707.665 513.201 707.478 513.654Q707.29 514.108 707.08 514.552Q706.87 514.995 706.638 515.428Q706.407 515.861 706.155 516.282Q705.902 516.704 705.629 517.112Q705.357 517.52 705.064 517.914Q704.772 518.309 704.46 518.688Q704.149 519.068 703.819 519.431Q703.489 519.795 703.142 520.142Q702.795 520.49 702.431 520.819Q702.068 521.149 701.688 521.46Q701.309 521.772 700.914 522.064Q700.52 522.357 700.112 522.629Q699.703 522.902 699.282 523.155Q698.861 523.407 698.428 523.638Q697.995 523.87 697.551 524.08Q697.108 524.29 696.654 524.478Q696.201 524.665 695.738 524.831Q695.276 524.996 694.806 525.139Q694.336 525.281 693.86 525.401Q693.384 525.52 692.902 525.616Q692.421 525.711 691.935 525.784Q691.45 525.856 690.961 525.904Q690.473 525.952 689.982 525.976Q689.492 526 689.001 526L24.1749 526Q23.625 526 23.0759 525.97Q22.5269 525.94 21.9803 525.879Q21.4337 525.819 20.8913 525.729Q20.3489 525.638 19.8122 525.518Q19.2756 525.398 18.7463 525.249Q18.2171 525.1 17.6968 524.922Q17.1766 524.744 16.6669 524.537Q16.1572 524.331 15.6597 524.097Q15.1621 523.863 14.6782 523.601Q14.1942 523.34 13.7254 523.053Q13.2565 522.766 12.8042 522.453Q12.3518 522.14 11.9173 521.803Q11.4828 521.466 11.0675 521.106Q10.6522 520.745 10.2573 520.363Q9.86238 519.98 9.48911 519.576Q9.11584 519.172 8.76533 518.749Q8.41482 518.325 8.08812 517.883Q7.76142 517.44 7.45952 516.981Q7.15761 516.521 6.88143 516.046Q6.60524 515.57 6.35559 515.08Q6.10595 514.59 5.88361 514.087Q5.66127 513.584 5.4669 513.07Q5.27253 512.556 5.10672 512.031Q4.94091 511.507 4.80416 510.974Q4.66741 510.442 4.56014 509.902Q4.45286 509.363 4.37538 508.819Q4.29791 508.274 4.25047 507.726Q4.20302 507.179 4.18575 506.629Q4.16849 506.079 4.18145 505.53Q4.19441 504.98 4.23756 504.432Q4.28071 503.884 4.35392 503.339Q4.42712 502.794 4.53017 502.253L82 96.165Z" id="Rectangle" fill="#FF865B" fill-rule="evenodd" stroke="none" />
</svg>